ISO-10303-21;
HEADER;
FILE_DESCRIPTION (( 'STEP AP214' ),
    '1' );
FILE_NAME ('TBA 1-1212HI.STEP',
    '2023-03-03T11:40:32',
    ( '' ),
    ( '' ),
    'SwSTEP 2.0',
    'SolidWorks 2017',
    '' );
FILE_SCHEMA (( 'AUTOMOTIVE_DESIGN' ));
ENDSEC;

DATA;
#1 = VECTOR ( 'NONE', #568, 1000.000000000000000 ) ;
#2 = ORIENTED_EDGE ( 'NONE', *, *, #1111, .F. ) ;
#3 = DIRECTION ( 'NONE',  ( 0.0000000000000000000, 0.0000000000000000000, 1.000000000000000000 ) ) ;
#4 = VECTOR ( 'NONE', #920, 1000.000000000000000 ) ;
#5 = ORIENTED_EDGE ( 'NONE', *, *, #106, .F. ) ;
#6 = CARTESIAN_POINT ( 'NONE',  ( 7.639999999999980100, -3.050000000000012300, -1.524999999999998600 ) ) ;
#7 = CARTESIAN_POINT ( 'NONE',  ( -4.560000000000008500, 0.4999999999999956700, -1.774999999999998800 ) ) ;
#8 = ORIENTED_EDGE ( 'NONE', *, *, #1116, .T. ) ;
#9 = ORIENTED_EDGE ( 'NONE', *, *, #303, .T. ) ;
#10 = VECTOR ( 'NONE', #1105, 1000.000000000000000 ) ;
#11 = AXIS2_PLACEMENT_3D ( 'NONE', #513, #784, #249 ) ;
#12 = PLANE ( 'NONE',  #1135 ) ;
#13 = AXIS2_PLACEMENT_3D ( 'NONE', #174, #877, #1059 ) ;
#14 = LINE ( 'NONE', #875, #950 ) ;
#15 = EDGE_CURVE ( 'NONE', #699, #1016, #826, .T. ) ;
#16 = FACE_OUTER_BOUND ( 'NONE', #1143, .T. ) ;
#17 = PRESENTATION_LAYER_ASSIGNMENT (  '', '', ( #1012 ) ) ;
#18 = ORIENTED_EDGE ( 'NONE', *, *, #937, .F. ) ;
#19 = VERTEX_POINT ( 'NONE', #185 ) ;
#20 = CARTESIAN_POINT ( 'NONE',  ( 2.560000130699985600, -3.049999945856087800, -1.774999999999998800 ) ) ;
#21 = EDGE_CURVE ( 'NONE', #1170, #1144, #137, .T. ) ;
#22 = ORIENTED_EDGE ( 'NONE', *, *, #1173, .T. ) ;
#23 = DIRECTION ( 'NONE',  ( 0.0000000000000000000, 1.000000000000000000, 0.0000000000000000000 ) ) ;
#24 = EDGE_LOOP ( 'NONE', ( #187, #616, #307, #434 ) ) ;
#25 =( NAMED_UNIT ( * ) SI_UNIT ( $, .STERADIAN. ) SOLID_ANGLE_UNIT ( ) );
#26 = VECTOR ( 'NONE', #552, 1000.000000000000000 ) ;
#27 =( LENGTH_UNIT ( ) NAMED_UNIT ( * ) SI_UNIT ( .MILLI., .METRE. ) );
#28 = CIRCLE ( 'NONE', #297, 0.2499999999999993600 ) ;
#29 = SURFACE_SIDE_STYLE ('',( #1072 ) ) ;
#30 = DIRECTION ( 'NONE',  ( 1.000000000000000000, 0.0000000000000000000, 0.0000000000000000000 ) ) ;
#31 = DIRECTION ( 'NONE',  ( 1.000000000000000000, 0.0000000000000000000, 0.0000000000000000000 ) ) ;
#32 = VECTOR ( 'NONE', #300, 1000.000000000000000 ) ;
#33 = SURFACE_STYLE_FILL_AREA ( #439 ) ;
#34 = VERTEX_POINT ( 'NONE', #1009 ) ;
#35 = LINE ( 'NONE', #450, #4 ) ;
#36 = ORIENTED_EDGE ( 'NONE', *, *, #949, .T. ) ;
#37 = AXIS2_PLACEMENT_3D ( 'NONE', #634, #361, #99 ) ;
#38 = DIRECTION ( 'NONE',  ( 1.000000000000000000, 0.0000000000000000000, 0.0000000000000000000 ) ) ;
#39 = VERTEX_POINT ( 'NONE', #95 ) ;
#40 = CARTESIAN_POINT ( 'NONE',  ( -4.560000000000008500, 0.4999999999999956700, -3.000000000000002700 ) ) ;
#41 = ORIENTED_EDGE ( 'NONE', *, *, #224, .F. ) ;
#42 = VECTOR ( 'NONE', #839, 1000.000000000000000 ) ;
#43 = DIRECTION ( 'NONE',  ( 0.0000000000000000000, 0.0000000000000000000, 1.000000000000000000 ) ) ;
#44 = EDGE_CURVE ( 'NONE', #1165, #672, #613, .T. ) ;
#45 = ADVANCED_FACE ( 'NONE', ( #802 ), #455, .T. ) ;
#46 = LINE ( 'NONE', #870, #583 ) ;
#47 = ORIENTED_EDGE ( 'NONE', *, *, #214, .T. ) ;
#48 = VERTEX_POINT ( 'NONE', #1004 ) ;
#49 = FILL_AREA_STYLE ('',( #203 ) ) ;
#50 = DIRECTION ( 'NONE',  ( 1.000000000000000000, 0.0000000000000000000, 0.0000000000000000000 ) ) ;
#51 = ADVANCED_FACE ( 'NONE', ( #971 ), #102, .F. ) ;
#52 = VERTEX_POINT ( 'NONE', #1103 ) ;
#53 = VECTOR ( 'NONE', #519, 1000.000000000000000 ) ;
#54 = COLOUR_RGB ( '',0.2509803921568627400, 0.2509803921568627400, 0.2509803921568627400 ) ;
#55 = EDGE_CURVE ( 'NONE', #601, #1165, #712, .T. ) ;
#56 = DIRECTION ( 'NONE',  ( -0.0000000000000000000, -0.0000000000000000000, 1.000000000000000000 ) ) ;
#57 = AXIS2_PLACEMENT_3D ( 'NONE', #155, #866, #321 ) ;
#58 = PLANE ( 'NONE',  #382 ) ;
#59 = EDGE_CURVE ( 'NONE', #702, #921, #728, .T. ) ;
#60 = LINE ( 'NONE', #743, #215 ) ;
#61 = LINE ( 'NONE', #415, #396 ) ;
#62 = ORIENTED_EDGE ( 'NONE', *, *, #423, .F. ) ;
#63 = FACE_OUTER_BOUND ( 'NONE', #1041, .T. ) ;
#64 = ORIENTED_EDGE ( 'NONE', *, *, #760, .T. ) ;
#65 = ADVANCED_FACE ( 'NONE', ( #253 ), #732, .T. ) ;
#66 = ORIENTED_EDGE ( 'NONE', *, *, #805, .F. ) ;
#67 = ORIENTED_EDGE ( 'NONE', *, *, #623, .F. ) ;
#68 = CARTESIAN_POINT ( 'NONE',  ( 9.249999999999980500, 0.4999999999999956700, -1.774999999999998800 ) ) ;
#69 = ORIENTED_EDGE ( 'NONE', *, *, #55, .F. ) ;
#70 = VECTOR ( 'NONE', #922, 1000.000000000000000 ) ;
#71 = ADVANCED_FACE ( 'NONE', ( #1034 ), #115, .T. ) ;
#72 = STYLED_ITEM ( 'NONE', ( #652 ), #1158 ) ;
#73 = DIRECTION ( 'NONE',  ( -1.000000000000000000, 0.0000000000000000000, 0.0000000000000000000 ) ) ;
#74 = FACE_OUTER_BOUND ( 'NONE', #510, .T. ) ;
#75 = ADVANCED_FACE ( 'NONE', ( #478 ), #727, .T. ) ;
#76 = DIRECTION ( 'NONE',  ( -0.0000000000000000000, -0.0000000000000000000, 1.000000000000000000 ) ) ;
#77 = FACE_OUTER_BOUND ( 'NONE', #783, .T. ) ;
#78 = PRODUCT_DEFINITION_CONTEXT ( 'detailed design', #87, 'design' ) ;
#79 = LINE ( 'NONE', #774, #1011 ) ;
#80 =( NAMED_UNIT ( * ) PLANE_ANGLE_UNIT ( ) SI_UNIT ( $, .RADIAN. ) );
#81 = EDGE_LOOP ( 'NONE', ( #153, #885, #444, #252 ) ) ;
#82 = DIRECTION ( 'NONE',  ( 0.0000000000000000000, 0.0000000000000000000, 1.000000000000000000 ) ) ;
#83 =( LENGTH_UNIT ( ) NAMED_UNIT ( * ) SI_UNIT ( .MILLI., .METRE. ) );
#84 = CYLINDRICAL_SURFACE ( 'NONE', #947, 0.2499999999999993600 ) ;
#85 = COLOUR_RGB ( '',0.7921568627450980000, 0.8196078431372548800, 0.9333333333333333500 ) ;
#86 = DIRECTION ( 'NONE',  ( 0.0000000000000000000, 0.0000000000000000000, -1.000000000000000000 ) ) ;
#87 = APPLICATION_CONTEXT ( 'automotive_design' ) ;
#88 = DIRECTION ( 'NONE',  ( -1.000000000000000000, 0.0000000000000000000, -0.0000000000000000000 ) ) ;
#89 = VECTOR ( 'NONE', #227, 1000.000000000000000 ) ;
#90 = PLANE ( 'NONE',  #864 ) ;
#91 = VERTEX_POINT ( 'NONE', #1175 ) ;
#92 = CARTESIAN_POINT ( 'NONE',  ( -9.250000000000008900, 0.4999999999999956700, -3.000000000000002700 ) ) ;
#93 = LINE ( 'NONE', #107, #1025 ) ;
#94 = VERTEX_POINT ( 'NONE', #925 ) ;
#95 = CARTESIAN_POINT ( 'NONE',  ( -9.250000000000008900, -4.336808689942017700E-015, -3.000000000000002700 ) ) ;
#96 = DIRECTION ( 'NONE',  ( 0.0000000000000000000, 1.000000000000000000, 0.0000000000000000000 ) ) ;
#97 = VERTEX_POINT ( 'NONE', #362 ) ;
#98 = EDGE_CURVE ( 'NONE', #981, #39, #1086, .T. ) ;
#99 = DIRECTION ( 'NONE',  ( 0.0000000000000000000, -1.000000000000000000, 0.0000000000000000000 ) ) ;
#100 = ORIENTED_EDGE ( 'NONE', *, *, #602, .T. ) ;
#101 = VERTEX_POINT ( 'NONE', #740 ) ;
#102 = PLANE ( 'NONE',  #374 ) ;
#103 = SURFACE_STYLE_FILL_AREA ( #926 ) ;
#104 = DIRECTION ( 'NONE',  ( 0.0000000000000000000, -1.000000000000000000, 0.0000000000000000000 ) ) ;
#105 = AXIS2_PLACEMENT_3D ( 'NONE', #948, #493, #216 ) ;
#106 = EDGE_CURVE ( 'NONE', #954, #91, #579, .T. ) ;
#107 = CARTESIAN_POINT ( 'NONE',  ( -4.560000000000008500, 0.4999999999999956700, -1.524999999999998600 ) ) ;
#108 = DIRECTION ( 'NONE',  ( 0.0000000000000000000, 0.0000000000000000000, 1.000000000000000000 ) ) ;
#109 = CARTESIAN_POINT ( 'NONE',  ( 3.060000130699985600, 0.5000000541439957300, -1.774999999999998800 ) ) ;
#110 = LINE ( 'NONE', #775, #1063 ) ;
#111 = CARTESIAN_POINT ( 'NONE',  ( 8.139999999999981000, 0.4999999999999956700, -3.000000000000002700 ) ) ;
#112 = EDGE_CURVE ( 'NONE', #101, #699, #239, .T. ) ;
#113 = VERTEX_POINT ( 'NONE', #554 ) ;
#114 = DIRECTION ( 'NONE',  ( 0.0000000000000000000, -1.000000000000000000, 0.0000000000000000000 ) ) ;
#115 = PLANE ( 'NONE',  #620 ) ;
#116 = ORIENTED_EDGE ( 'NONE', *, *, #466, .T. ) ;
#117 = ORIENTED_EDGE ( 'NONE', *, *, #840, .T. ) ;
#118 = CARTESIAN_POINT ( 'NONE',  ( 9.249999999999980500, 0.4999999999999956700, -1.774999999999998800 ) ) ;
#119 = DIRECTION ( 'NONE',  ( -0.0000000000000000000, 1.000000000000000000, -0.0000000000000000000 ) ) ;
#120 = CARTESIAN_POINT ( 'NONE',  ( -7.099999999999995200, 0.4999999999999956700, -3.000000000000002700 ) ) ;
#121 = DIRECTION ( 'NONE',  ( 1.000000000000000000, 0.0000000000000000000, 0.0000000000000000000 ) ) ;
#122 = CARTESIAN_POINT ( 'NONE',  ( 3.060000130699985600, -3.049999945856087800, -1.774999999999998800 ) ) ;
#123 = LINE ( 'NONE', #124, #1060 ) ;
#124 = CARTESIAN_POINT ( 'NONE',  ( 0.0000000000000000000, 0.4999999999999961100, 2.999999999999988900 ) ) ;
#125 = EDGE_LOOP ( 'NONE', ( #309, #66, #865, #820 ) ) ;
#126 = EDGE_LOOP ( 'NONE', ( #982, #385, #139, #331 ) ) ;
#127 = CARTESIAN_POINT ( 'NONE',  ( 8.139999999999981000, 0.4999999999999956700, -1.524999999999998600 ) ) ;
#128 = EDGE_CURVE ( 'NONE', #449, #500, #567, .T. ) ;
#129 = CARTESIAN_POINT ( 'NONE',  ( -8.050000000000007800, 1.499999999999999600, 2.749999999999988500 ) ) ;
#130 = EDGE_LOOP ( 'NONE', ( #693, #225, #720, #665, #899, #279, #270, #357 ) ) ;
#131 = LINE ( 'NONE', #529, #158 ) ;
#132 = CARTESIAN_POINT ( 'NONE',  ( -9.750000000000008900, -4.336808689942017700E-015, 2.999999999999988900 ) ) ;
#133 = CARTESIAN_POINT ( 'NONE',  ( 7.639999999999980100, -3.050000000000012300, -1.774999999999998800 ) ) ;
#134 = VECTOR ( 'NONE', #480, 1000.000000000000000 ) ;
#135 = LINE ( 'NONE', #1065, #165 ) ;
#136 = VECTOR ( 'NONE', #501, 1000.000000000000000 ) ;
#137 = LINE ( 'NONE', #996, #1064 ) ;
#138 = CARTESIAN_POINT ( 'NONE',  ( 9.249999999999980500, -4.336808689942017700E-015, -3.000000000000002700 ) ) ;
#139 = ORIENTED_EDGE ( 'NONE', *, *, #98, .T. ) ;
#140 = AXIS2_PLACEMENT_3D ( 'NONE', #351, #108, #283 ) ;
#141 = VERTEX_POINT ( 'NONE', #564 ) ;
#142 = SURFACE_STYLE_USAGE ( .BOTH. , #213 ) ;
#143 = EDGE_LOOP ( 'NONE', ( #953, #389 ) ) ;
#144 = PRESENTATION_STYLE_ASSIGNMENT (( #334 ) ) ;
#145 = ADVANCED_FACE ( 'NONE', ( #491 ), #571, .T. ) ;
#146 = PLANE ( 'NONE',  #1128 ) ;
#147 = MECHANICAL_DESIGN_GEOMETRIC_PRESENTATION_REPRESENTATION (  '', ( #1012 ), #945 ) ;
#148 = UNCERTAINTY_MEASURE_WITH_UNIT (LENGTH_MEASURE( 1.000000000000000100E-005 ), #526, 'distance_accuracy_value', 'NONE');
#149 = CARTESIAN_POINT ( 'NONE',  ( 7.639999999999980100, -3.050000000000012300, -1.774999999999998800 ) ) ;
#150 = CARTESIAN_POINT ( 'NONE',  ( 9.249999999999980500, 0.4999999999999956700, -1.774999999999998800 ) ) ;
#151 = FACE_OUTER_BOUND ( 'NONE', #471, .T. ) ;
#152 = EDGE_LOOP ( 'NONE', ( #534, #69, #8, #813 ) ) ;
#153 = ORIENTED_EDGE ( 'NONE', *, *, #606, .T. ) ;
#154 = DIRECTION ( 'NONE',  ( -1.000000000000000000, 0.0000000000000000000, -0.0000000000000000000 ) ) ;
#155 = CARTESIAN_POINT ( 'NONE',  ( -8.050000000000007800, 1.499999999999999600, 2.999999999999988900 ) ) ;
#156 = EDGE_LOOP ( 'NONE', ( #869, #417, #410, #907 ) ) ;
#157 = ADVANCED_FACE ( 'NONE', ( #660 ), #1021, .T. ) ;
#158 = VECTOR ( 'NONE', #1156, 1000.000000000000000 ) ;
#159 = CARTESIAN_POINT ( 'NONE',  ( 0.0000000000000000000, -4.336808689942017700E-015, 2.999999999999988900 ) ) ;
#160 = VECTOR ( 'NONE', #1003, 1000.000000000000000 ) ;
#161 = EDGE_CURVE ( 'NONE', #1125, #853, #845, .T. ) ;
#162 = MANIFOLD_SOLID_BREP ( 'Cut-Extrude1', #166 ) ;
#163 = DIRECTION ( 'NONE',  ( -0.0000000000000000000, 1.000000000000000000, -0.0000000000000000000 ) ) ;
#164 = LINE ( 'NONE', #738, #32 ) ;
#165 = VECTOR ( 'NONE', #344, 1000.000000000000000 ) ;
#166 = CLOSED_SHELL ( 'NONE', ( #171, #614, #336, #71, #896, #762, #157, #771, #515, #75, #955, #315, #329 ) ) ;
#167 = ORIENTED_EDGE ( 'NONE', *, *, #937, .T. ) ;
#168 = EDGE_CURVE ( 'NONE', #101, #308, #830, .T. ) ;
#169 = CARTESIAN_POINT ( 'NONE',  ( -7.349999999999995200, -3.050000000000012300, -1.774999999999998800 ) ) ;
#170 = ORIENTED_EDGE ( 'NONE', *, *, #1159, .F. ) ;
#171 = ADVANCED_FACE ( 'NONE', ( #212 ), #592, .F. ) ;
#172 = ORIENTED_EDGE ( 'NONE', *, *, #828, .T. ) ;
#173 = FACE_OUTER_BOUND ( 'NONE', #152, .T. ) ;
#174 = CARTESIAN_POINT ( 'NONE',  ( -8.050000000000007800, 1.499999999999999600, 2.749999999999988500 ) ) ;
#175 = FACE_OUTER_BOUND ( 'NONE', #317, .T. ) ;
#176 = MECHANICAL_DESIGN_GEOMETRIC_PRESENTATION_REPRESENTATION (  '', ( #335 ), #1089 ) ;
#177 = VECTOR ( 'NONE', #763, 1000.000000000000000 ) ;
#178 = FACE_OUTER_BOUND ( 'NONE', #1068, .T. ) ;
#179 = ORIENTED_EDGE ( 'NONE', *, *, #259, .F. ) ;
#180 = VECTOR ( 'NONE', #355, 1000.000000000000000 ) ;
#181 = ORIENTED_EDGE ( 'NONE', *, *, #840, .F. ) ;
#182 = PLANE ( 'NONE',  #836 ) ;
#183 = EDGE_CURVE ( 'NONE', #702, #504, #822, .T. ) ;
#184 = LINE ( 'NONE', #296, #874 ) ;
#185 = CARTESIAN_POINT ( 'NONE',  ( -4.560000000000008500, -3.050000000000012300, -1.524999999999998600 ) ) ;
#186 = PLANE ( 'NONE',  #757 ) ;
#187 = ORIENTED_EDGE ( 'NONE', *, *, #168, .F. ) ;
#188 = DIRECTION ( 'NONE',  ( 0.0000000000000000000, -1.000000000000000000, 0.0000000000000000000 ) ) ;
#189 = ORIENTED_EDGE ( 'NONE', *, *, #766, .F. ) ;
#190 = ORIENTED_EDGE ( 'NONE', *, *, #55, .T. ) ;
#191 = DIRECTION ( 'NONE',  ( 1.000000000000000000, 0.0000000000000000000, 0.0000000000000000000 ) ) ;
#192 = MANIFOLD_SOLID_BREP ( 'Split1[4]', #1102 ) ;
#193 = ORIENTED_EDGE ( 'NONE', *, *, #952, .F. ) ;
#194 = DIRECTION ( 'NONE',  ( 0.0000000000000000000, 0.0000000000000000000, 1.000000000000000000 ) ) ;
#195 = ORIENTED_EDGE ( 'NONE', *, *, #183, .F. ) ;
#196 = EDGE_LOOP ( 'NONE', ( #724, #1031, #218, #1069 ) ) ;
#197 = CARTESIAN_POINT ( 'NONE',  ( 3.060000130699985600, 0.5000000541439957300, -1.524999999999998600 ) ) ;
#198 = CIRCLE ( 'NONE', #140, 0.2499999999999993600 ) ;
#199 = CARTESIAN_POINT ( 'NONE',  ( 9.249999999999980500, 0.4999999999999961100, -3.000000000000002700 ) ) ;
#200 = AXIS2_PLACEMENT_3D ( 'NONE', #492, #43, #1127 ) ;
#201 = PLANE ( 'NONE',  #967 ) ;
#202 = DIRECTION ( 'NONE',  ( 0.0000000000000000000, 0.0000000000000000000, 1.000000000000000000 ) ) ;
#203 = FILL_AREA_STYLE_COLOUR ( '', #363 ) ;
#204 = CIRCLE ( 'NONE', #217, 0.2499999999999993600 ) ;
#205 =( GEOMETRIC_REPRESENTATION_CONTEXT ( 3 ) GLOBAL_UNCERTAINTY_ASSIGNED_CONTEXT ( ( #281 ) ) GLOBAL_UNIT_ASSIGNED_CONTEXT ( ( #729, #824, #1084 ) ) REPRESENTATION_CONTEXT ( 'NONE', 'WORKASPACE' ) );
#206 = ORIENTED_EDGE ( 'NONE', *, *, #59, .F. ) ;
#207 = SURFACE_SIDE_STYLE ('',( #103 ) ) ;
#208 = EDGE_LOOP ( 'NONE', ( #970, #5, #933, #918 ) ) ;
#209 = DIRECTION ( 'NONE',  ( 1.000000000000000000, 0.0000000000000000000, 0.0000000000000000000 ) ) ;
#210 = EDGE_LOOP ( 'NONE', ( #1130, #798, #464, #1117 ) ) ;
#211 = LINE ( 'NONE', #268, #1131 ) ;
#212 = FACE_OUTER_BOUND ( 'NONE', #349, .T. ) ;
#213 = SURFACE_SIDE_STYLE ('',( #597 ) ) ;
#214 = EDGE_CURVE ( 'NONE', #500, #628, #453, .T. ) ;
#215 = VECTOR ( 'NONE', #388, 1000.000000000000000 ) ;
#216 = DIRECTION ( 'NONE',  ( 1.000000000000000000, 0.0000000000000000000, 0.0000000000000000000 ) ) ;
#217 = AXIS2_PLACEMENT_3D ( 'NONE', #507, #781, #598 ) ;
#218 = ORIENTED_EDGE ( 'NONE', *, *, #662, .T. ) ;
#219 = LINE ( 'NONE', #6, #901 ) ;
#220 = ORIENTED_EDGE ( 'NONE', *, *, #228, .T. ) ;
#221 = AXIS2_PLACEMENT_3D ( 'NONE', #381, #1100, #931 ) ;
#222 = FILL_AREA_STYLE ('',( #663 ) ) ;
#223 = ORIENTED_EDGE ( 'NONE', *, *, #548, .T. ) ;
#224 = EDGE_CURVE ( 'NONE', #672, #726, #28, .T. ) ;
#225 = ORIENTED_EDGE ( 'NONE', *, *, #483, .T. ) ;
#226 = LINE ( 'NONE', #966, #710 ) ;
#227 = DIRECTION ( 'NONE',  ( -0.0000000000000000000, -1.000000000000000000, -0.0000000000000000000 ) ) ;
#228 = EDGE_CURVE ( 'NONE', #290, #921, #184, .T. ) ;
#229 = LINE ( 'NONE', #625, #256 ) ;
#230 = LINE ( 'NONE', #698, #408 ) ;
#231 = VERTEX_POINT ( 'NONE', #1120 ) ;
#232 = DIRECTION ( 'NONE',  ( 0.0000000000000000000, 0.0000000000000000000, 1.000000000000000000 ) ) ;
#233 = ORIENTED_EDGE ( 'NONE', *, *, #792, .F. ) ;
#234 = AXIS2_PLACEMENT_3D ( 'NONE', #1015, #573, #30 ) ;
#235 = ADVANCED_FACE ( 'NONE', ( #267 ), #295, .T. ) ;
#236 = PLANE ( 'NONE',  #57 ) ;
#237 = ORIENTED_EDGE ( 'NONE', *, *, #1038, .F. ) ;
#238 = LINE ( 'NONE', #629, #1171 ) ;
#239 = LINE ( 'NONE', #747, #10 ) ;
#240 = STYLED_ITEM ( 'NONE', ( #779 ), #856 ) ;
#241 = CARTESIAN_POINT ( 'NONE',  ( -8.050000000000007800, 1.499999999999999600, 2.042893218813442300 ) ) ;
#242 = CARTESIAN_POINT ( 'NONE',  ( 7.639999999999980100, 0.4999999999999956700, -1.524999999999998600 ) ) ;
#243 = CARTESIAN_POINT ( 'NONE',  ( -9.250000000000008900, 0.4999999999999961100, 2.999999999999988900 ) ) ;
#244 = LINE ( 'NONE', #831, #1 ) ;
#245 = DIRECTION ( 'NONE',  ( -0.0000000000000000000, -0.0000000000000000000, 1.000000000000000000 ) ) ;
#246 = VERTEX_POINT ( 'NONE', #199 ) ;
#247 = LINE ( 'NONE', #149, #667 ) ;
#248 = ORIENTED_EDGE ( 'NONE', *, *, #1159, .T. ) ;
#249 = DIRECTION ( 'NONE',  ( 0.0000000000000000000, -1.000000000000000000, 0.0000000000000000000 ) ) ;
#250 = FILL_AREA_STYLE_COLOUR ( '', #1160 ) ;
#251 = ORIENTED_EDGE ( 'NONE', *, *, #1014, .T. ) ;
#252 = ORIENTED_EDGE ( 'NONE', *, *, #21, .T. ) ;
#253 = FACE_OUTER_BOUND ( 'NONE', #681, .T. ) ;
#254 = ADVANCED_FACE ( 'NONE', ( #422 ), #666, .T. ) ;
#255 =( LENGTH_UNIT ( ) NAMED_UNIT ( * ) SI_UNIT ( .MILLI., .METRE. ) );
#256 = VECTOR ( 'NONE', #445, 1000.000000000000000 ) ;
#257 = FILL_AREA_STYLE_COLOUR ( '', #930 ) ;
#258 = EDGE_LOOP ( 'NONE', ( #642, #289, #599, #969 ) ) ;
#259 = EDGE_CURVE ( 'NONE', #427, #456, #956, .T. ) ;
#260 = CARTESIAN_POINT ( 'NONE',  ( -7.599999999999996100, 0.4999999999999956700, -3.000000000000002700 ) ) ;
#261 = LINE ( 'NONE', #421, #472 ) ;
#262 = DIRECTION ( 'NONE',  ( 0.0000000000000000000, -1.000000000000000000, -0.0000000000000000000 ) ) ;
#263 = CARTESIAN_POINT ( 'NONE',  ( 0.0000000000000000000, 0.0000000000000000000, 0.0000000000000000000 ) ) ;
#264 = CARTESIAN_POINT ( 'NONE',  ( -7.599999999999996100, -3.050000000000012300, -1.774999999999998800 ) ) ;
#265 = ORIENTED_EDGE ( 'NONE', *, *, #380, .T. ) ;
#266 = LINE ( 'NONE', #463, #535 ) ;
#267 = FACE_OUTER_BOUND ( 'NONE', #903, .T. ) ;
#268 = CARTESIAN_POINT ( 'NONE',  ( 9.249999999999980500, -4.336808689942017700E-015, -3.000000000000002700 ) ) ;
#269 = CARTESIAN_POINT ( 'NONE',  ( 9.749999999999980500, 0.4999999999999956700, -3.000000000000002700 ) ) ;
#270 = ORIENTED_EDGE ( 'NONE', *, *, #851, .T. ) ;
#271 = DIRECTION ( 'NONE',  ( 1.000000000000000000, 0.0000000000000000000, 0.0000000000000000000 ) ) ;
#272 = VECTOR ( 'NONE', #1163, 1000.000000000000000 ) ;
#273 = ORIENTED_EDGE ( 'NONE', *, *, #862, .F. ) ;
#274 = CARTESIAN_POINT ( 'NONE',  ( 9.249999999999980500, -4.336808689942017700E-015, 2.999999999999988900 ) ) ;
#275 = DIRECTION ( 'NONE',  ( 0.0000000000000000000, -1.000000000000000000, -0.0000000000000000000 ) ) ;
#276 = ORIENTED_EDGE ( 'NONE', *, *, #760, .F. ) ;
#277 = AXIS2_PLACEMENT_3D ( 'NONE', #891, #446, #1155 ) ;
#278 = CARTESIAN_POINT ( 'NONE',  ( 3.060000130699985600, -3.049999945856087800, -1.774999999999998800 ) ) ;
#279 = ORIENTED_EDGE ( 'NONE', *, *, #540, .T. ) ;
#280 = PLANE ( 'NONE',  #1071 ) ;
#281 = UNCERTAINTY_MEASURE_WITH_UNIT (LENGTH_MEASURE( 1.000000000000000100E-005 ), #729, 'distance_accuracy_value', 'NONE');
#282 = AXIS2_PLACEMENT_3D ( 'NONE', #842, #312, #392 ) ;
#283 = DIRECTION ( 'NONE',  ( 1.000000000000000000, 0.0000000000000000000, 0.0000000000000000000 ) ) ;
#284 = VECTOR ( 'NONE', #285, 1000.000000000000000 ) ;
#285 = DIRECTION ( 'NONE',  ( 0.0000000000000000000, 0.0000000000000000000, -1.000000000000000000 ) ) ;
#286 = PLANE ( 'NONE',  #282 ) ;
#287 = CARTESIAN_POINT ( 'NONE',  ( -8.300000000000009600, 1.499999999999999600, 2.749999999999988500 ) ) ;
#288 = LINE ( 'NONE', #622, #469 ) ;
#289 = ORIENTED_EDGE ( 'NONE', *, *, #340, .T. ) ;
#290 = VERTEX_POINT ( 'NONE', #786 ) ;
#291 = DIRECTION ( 'NONE',  ( -0.0000000000000000000, -0.0000000000000000000, 1.000000000000000000 ) ) ;
#292 = ORIENTED_EDGE ( 'NONE', *, *, #393, .T. ) ;
#293 = VERTEX_POINT ( 'NONE', #378 ) ;
#294 = DIRECTION ( 'NONE',  ( 1.000000000000000000, 0.0000000000000000000, 0.0000000000000000000 ) ) ;
#295 = CYLINDRICAL_SURFACE ( 'NONE', #234, 0.2499999999999993600 ) ;
#296 = CARTESIAN_POINT ( 'NONE',  ( 8.139999999999981000, -1.275000000000004800, -1.774999999999998800 ) ) ;
#297 = AXIS2_PLACEMENT_3D ( 'NONE', #835, #576, #387 ) ;
#298 = CARTESIAN_POINT ( 'NONE',  ( 3.060000130699985600, -3.049999945856087800, -1.774999999999998800 ) ) ;
#299 = DIRECTION ( 'NONE',  ( 0.0000000000000000000, -1.000000000000000000, 0.0000000000000000000 ) ) ;
#300 = DIRECTION ( 'NONE',  ( 0.0000000000000000000, 1.000000000000000000, 0.0000000000000000000 ) ) ;
#301 = PRESENTATION_LAYER_ASSIGNMENT (  '', '', ( #240 ) ) ;
#302 = CARTESIAN_POINT ( 'NONE',  ( -9.750000000000008900, 0.4999999999999956700, -3.000000000000002700 ) ) ;
#303 = EDGE_CURVE ( 'NONE', #97, #427, #658, .T. ) ;
#304 = EDGE_LOOP ( 'NONE', ( #638, #1079, #100, #942 ) ) ;
#305 = LINE ( 'NONE', #878, #486 ) ;
#306 =( LENGTH_UNIT ( ) NAMED_UNIT ( * ) SI_UNIT ( .MILLI., .METRE. ) );
#307 = ORIENTED_EDGE ( 'NONE', *, *, #778, .T. ) ;
#308 = VERTEX_POINT ( 'NONE', #624 ) ;
#309 = ORIENTED_EDGE ( 'NONE', *, *, #1075, .T. ) ;
#310 = CARTESIAN_POINT ( 'NONE',  ( -4.810000000000008500, -3.050000000000012300, -1.524999999999998600 ) ) ;
#311 = CARTESIAN_POINT ( 'NONE',  ( -7.099999999999995200, -3.050000000000012300, -1.774999999999998800 ) ) ;
#312 = DIRECTION ( 'NONE',  ( 0.0000000000000000000, 0.0000000000000000000, 1.000000000000000000 ) ) ;
#313 = FACE_OUTER_BOUND ( 'NONE', #130, .T. ) ;
#314 = CARTESIAN_POINT ( 'NONE',  ( -4.560000000000008500, -3.050000000000012300, -1.774999999999998800 ) ) ;
#315 = ADVANCED_FACE ( 'NONE', ( #173 ), #84, .F. ) ;
#316 = EDGE_CURVE ( 'NONE', #853, #48, #873, .T. ) ;
#317 = EDGE_LOOP ( 'NONE', ( #890, #487, #368, #167 ) ) ;
#318 = VECTOR ( 'NONE', #537, 1000.000000000000000 ) ;
#319 = CARTESIAN_POINT ( 'NONE',  ( 9.249999999999980500, 0.4999999999999956700, -3.000000000000002700 ) ) ;
#320 = DIRECTION ( 'NONE',  ( -0.0000000000000000000, -0.0000000000000000000, 1.000000000000000000 ) ) ;
#321 = DIRECTION ( 'NONE',  ( 1.000000000000000000, 0.0000000000000000000, -0.0000000000000000000 ) ) ;
#322 = LINE ( 'NONE', #656, #542 ) ;
#323 = PLANE ( 'NONE',  #1172 ) ;
#324 = CLOSED_SHELL ( 'NONE', ( #531, #509, #1046, #879, #984, #1151 ) ) ;
#325 = CARTESIAN_POINT ( 'NONE',  ( -9.750000000000008900, -4.336808689942017700E-015, -3.000000000000002700 ) ) ;
#326 = FACE_OUTER_BOUND ( 'NONE', #497, .T. ) ;
#327 = CARTESIAN_POINT ( 'NONE',  ( 2.810000130699985600, -1.274999945856004800, -1.774999999999998800 ) ) ;
#328 = ORIENTED_EDGE ( 'NONE', *, *, #1098, .F. ) ;
#329 = ADVANCED_FACE ( 'NONE', ( #565 ), #680, .T. ) ;
#330 = PLANE ( 'NONE',  #1082 ) ;
#331 = ORIENTED_EDGE ( 'NONE', *, *, #1150, .T. ) ;
#332 = EDGE_CURVE ( 'NONE', #91, #430, #226, .T. ) ;
#333 = DIRECTION ( 'NONE',  ( -0.0000000000000000000, -0.0000000000000000000, 1.000000000000000000 ) ) ;
#334 = SURFACE_STYLE_USAGE ( .BOTH. , #976 ) ;
#335 = STYLED_ITEM ( 'NONE', ( #991 ), #612 ) ;
#336 = ADVANCED_FACE ( 'NONE', ( #1018 ), #330, .T. ) ;
#337 = CARTESIAN_POINT ( 'NONE',  ( 7.889999999999980100, -3.050000000000012300, -1.524999999999998600 ) ) ;
#338 = FACE_OUTER_BOUND ( 'NONE', #258, .T. ) ;
#339 = EDGE_CURVE ( 'NONE', #1032, #459, #131, .T. ) ;
#340 = EDGE_CURVE ( 'NONE', #141, #751, #1118, .T. ) ;
#341 = CARTESIAN_POINT ( 'NONE',  ( -8.300000000000009600, 1.499999999999999600, 2.999999999999988900 ) ) ;
#342 = EDGE_LOOP ( 'NONE', ( #685, #632, #265, #584 ) ) ;
#343 = ORIENTED_EDGE ( 'NONE', *, *, #183, .T. ) ;
#344 = DIRECTION ( 'NONE',  ( -0.0000000000000000000, 1.000000000000000000, -0.0000000000000000000 ) ) ;
#345 = DIRECTION ( 'NONE',  ( -0.0000000000000000000, -1.000000000000000000, -0.0000000000000000000 ) ) ;
#346 = DIRECTION ( 'NONE',  ( -1.000000000000000000, 0.0000000000000000000, 0.0000000000000000000 ) ) ;
#347 = AXIS2_PLACEMENT_3D ( 'NONE', #643, #202, #1087 ) ;
#348 = CARTESIAN_POINT ( 'NONE',  ( 8.139999999999981000, -3.050000000000012300, -1.774999999999998800 ) ) ;
#349 = EDGE_LOOP ( 'NONE', ( #1114, #413, #589, #1101 ) ) ;
#350 = EDGE_CURVE ( 'NONE', #921, #141, #744, .T. ) ;
#351 = CARTESIAN_POINT ( 'NONE',  ( -8.050000000000007800, 1.499999999999999600, 2.999999999999988900 ) ) ;
#352 = LINE ( 'NONE', #987, #561 ) ;
#353 = ORIENTED_EDGE ( 'NONE', *, *, #161, .F. ) ;
#354 = AXIS2_PLACEMENT_3D ( 'NONE', #1058, #73, #704 ) ;
#355 = DIRECTION ( 'NONE',  ( 1.000000000000000000, -0.0000000000000000000, 0.0000000000000000000 ) ) ;
#356 = CARTESIAN_POINT ( 'NONE',  ( 3.060000130699985600, -3.049999945856087800, -1.524999999999998600 ) ) ;
#357 = ORIENTED_EDGE ( 'NONE', *, *, #106, .T. ) ;
#358 = LINE ( 'NONE', #457, #892 ) ;
#359 = DIRECTION ( 'NONE',  ( -1.000000000000000000, 0.0000000000000000000, -0.0000000000000000000 ) ) ;
#360 = PRESENTATION_STYLE_ASSIGNMENT (( #1109 ) ) ;
#361 = DIRECTION ( 'NONE',  ( 1.000000000000000000, 0.0000000000000000000, 0.0000000000000000000 ) ) ;
#362 = CARTESIAN_POINT ( 'NONE',  ( -7.599999999999996100, -3.050000000000012300, -1.524999999999998600 ) ) ;
#363 = COLOUR_RGB ( '',1.000000000000000000, 1.000000000000000000, 1.000000000000000000 ) ;
#364 = LINE ( 'NONE', #159, #881 ) ;
#365 = FACE_OUTER_BOUND ( 'NONE', #196, .T. ) ;
#366 = FACE_OUTER_BOUND ( 'NONE', #1154, .T. ) ;
#367 = DIRECTION ( 'NONE',  ( 0.0000000000000000000, -1.000000000000000000, -0.0000000000000000000 ) ) ;
#368 = ORIENTED_EDGE ( 'NONE', *, *, #15, .T. ) ;
#369 = CARTESIAN_POINT ( 'NONE',  ( 8.139999999999981000, -3.050000000000012300, -1.774999999999998800 ) ) ;
#370 = ORIENTED_EDGE ( 'NONE', *, *, #403, .F. ) ;
#371 = ORIENTED_EDGE ( 'NONE', *, *, #989, .F. ) ;
#372 = DIRECTION ( 'NONE',  ( 0.0000000000000000000, -1.000000000000000000, 0.0000000000000000000 ) ) ;
#373 = ORIENTED_EDGE ( 'NONE', *, *, #416, .T. ) ;
#374 = AXIS2_PLACEMENT_3D ( 'NONE', #379, #372, #823 ) ;
#375 = DIRECTION ( 'NONE',  ( 1.000000000000000000, 0.0000000000000000000, -0.0000000000000000000 ) ) ;
#376 = PRODUCT_DEFINITION_SHAPE ( 'NONE', 'NONE',  #986 ) ;
#377 = VECTOR ( 'NONE', #688, 1000.000000000000000 ) ;
#378 = CARTESIAN_POINT ( 'NONE',  ( -5.060000000000009400, 0.4999999999999956700, -1.524999999999998600 ) ) ;
#379 = CARTESIAN_POINT ( 'NONE',  ( 9.249999999999980500, 0.4999999999999961100, 2.999999999999988900 ) ) ;
#380 = EDGE_CURVE ( 'NONE', #113, #500, #1070, .T. ) ;
#381 = CARTESIAN_POINT ( 'NONE',  ( 9.249999999999980500, 0.4999999999999961100, 2.999999999999988900 ) ) ;
#382 = AXIS2_PLACEMENT_3D ( 'NONE', #327, #232, #861 ) ;
#383 = EDGE_CURVE ( 'NONE', #628, #528, #946, .T. ) ;
#384 = VERTEX_POINT ( 'NONE', #341 ) ;
#385 = ORIENTED_EDGE ( 'NONE', *, *, #409, .F. ) ;
#386 =( NAMED_UNIT ( * ) PLANE_ANGLE_UNIT ( ) SI_UNIT ( $, .RADIAN. ) );
#387 = DIRECTION ( 'NONE',  ( 1.000000000000000000, 0.0000000000000000000, 0.0000000000000000000 ) ) ;
#388 = DIRECTION ( 'NONE',  ( 1.000000000000000000, -0.0000000000000000000, 0.0000000000000000000 ) ) ;
#389 = ORIENTED_EDGE ( 'NONE', *, *, #423, .T. ) ;
#390 = DIRECTION ( 'NONE',  ( -0.0000000000000000000, -0.0000000000000000000, 1.000000000000000000 ) ) ;
#391 = LINE ( 'NONE', #725, #160 ) ;
#392 = DIRECTION ( 'NONE',  ( 0.0000000000000000000, -1.000000000000000000, 0.0000000000000000000 ) ) ;
#393 = EDGE_CURVE ( 'NONE', #308, #1016, #1055, .T. ) ;
#394 = CARTESIAN_POINT ( 'NONE',  ( 9.249999999999980500, 0.4999999999999961100, 2.999999999999988900 ) ) ;
#395 = FACE_BOUND ( 'NONE', #965, .T. ) ;
#396 = VECTOR ( 'NONE', #791, 1000.000000000000000 ) ;
#397 = VECTOR ( 'NONE', #320, 1000.000000000000000 ) ;
#398 = ORIENTED_EDGE ( 'NONE', *, *, #611, .T. ) ;
#399 = ORIENTED_EDGE ( 'NONE', *, *, #128, .T. ) ;
#400 = MANIFOLD_SOLID_BREP ( 'Split1[3]', #919 ) ;
#401 = ORIENTED_EDGE ( 'NONE', *, *, #303, .F. ) ;
#402 = CARTESIAN_POINT ( 'NONE',  ( -7.800000000000009600, 1.499999999999999600, 2.999999999999988900 ) ) ;
#403 = EDGE_CURVE ( 'NONE', #34, #427, #673, .T. ) ;
#404 = SURFACE_STYLE_USAGE ( .BOTH. , #1132 ) ;
#405 = ADVANCED_FACE ( 'NONE', ( #1104 ), #821, .T. ) ;
#406 = LINE ( 'NONE', #621, #397 ) ;
#407 = DIRECTION ( 'NONE',  ( -0.0000000000000000000, -0.0000000000000000000, 1.000000000000000000 ) ) ;
#408 = VECTOR ( 'NONE', #804, 1000.000000000000000 ) ;
#409 = EDGE_CURVE ( 'NONE', #981, #998, #266, .T. ) ;
#410 = ORIENTED_EDGE ( 'NONE', *, *, #828, .F. ) ;
#411 = AXIS2_PLACEMENT_3D ( 'NONE', #927, #3, #271 ) ;
#412 = LINE ( 'NONE', #1099, #180 ) ;
#413 = ORIENTED_EDGE ( 'NONE', *, *, #44, .T. ) ;
#414 = FILL_AREA_STYLE ('',( #683 ) ) ;
#415 = CARTESIAN_POINT ( 'NONE',  ( -9.750000000000008900, 10.00000000000199800, -3.000000000000002700 ) ) ;
#416 = EDGE_CURVE ( 'NONE', #1110, #97, #619, .T. ) ;
#417 = ORIENTED_EDGE ( 'NONE', *, *, #851, .F. ) ;
#418 = VECTOR ( 'NONE', #719, 1000.000000000000000 ) ;
#419 = CARTESIAN_POINT ( 'NONE',  ( -7.599999999999996100, -3.050000000000012300, -1.524999999999998600 ) ) ;
#420 = PRODUCT_DEFINITION_FORMATION_WITH_SPECIFIED_SOURCE ( 'ANY', '', #1002, .NOT_KNOWN. ) ;
#421 = CARTESIAN_POINT ( 'NONE',  ( -7.099999999999995200, -1.275000000000004800, -1.774999999999998800 ) ) ;
#422 = FACE_OUTER_BOUND ( 'NONE', #1129, .T. ) ;
#423 = EDGE_CURVE ( 'NONE', #384, #1026, #198, .T. ) ;
#424 = CARTESIAN_POINT ( 'NONE',  ( 3.060000130699985600, 0.5000000541439957300, -1.774999999999998800 ) ) ;
#425 = VECTOR ( 'NONE', #958, 1000.000000000000000 ) ;
#426 = ORIENTED_EDGE ( 'NONE', *, *, #527, .F. ) ;
#427 = VERTEX_POINT ( 'NONE', #557 ) ;
#428 = DIRECTION ( 'NONE',  ( 0.0000000000000000000, 1.000000000000000000, 0.0000000000000000000 ) ) ;
#429 = ORIENTED_EDGE ( 'NONE', *, *, #15, .F. ) ;
#430 = VERTEX_POINT ( 'NONE', #541 ) ;
#431 = APPLICATION_PROTOCOL_DEFINITION ( 'draft international standard', 'automotive_design', 1998, #87 ) ;
#432 = ORIENTED_EDGE ( 'NONE', *, *, #910, .F. ) ;
#433 =( NAMED_UNIT ( * ) SI_UNIT ( $, .STERADIAN. ) SOLID_ANGLE_UNIT ( ) );
#434 = ORIENTED_EDGE ( 'NONE', *, *, #1111, .T. ) ;
#435 = VECTOR ( 'NONE', #911, 1000.000000000000000 ) ;
#436 = CARTESIAN_POINT ( 'NONE',  ( 9.749999999999980500, 10.00000000000199800, -3.000000000000002700 ) ) ;
#437 =( NAMED_UNIT ( * ) PLANE_ANGLE_UNIT ( ) SI_UNIT ( $, .RADIAN. ) );
#438 = STYLED_ITEM ( 'NONE', ( #1148 ), #192 ) ;
#439 = FILL_AREA_STYLE ('',( #257 ) ) ;
#440 = FACE_OUTER_BOUND ( 'NONE', #838, .T. ) ;
#441 = EDGE_CURVE ( 'NONE', #954, #52, #211, .T. ) ;
#442 = DIRECTION ( 'NONE',  ( 1.000000000000000000, 0.0000000000000000000, 0.0000000000000000000 ) ) ;
#443 = AXIS2_PLACEMENT_3D ( 'NONE', #241, #508, #876 ) ;
#444 = ORIENTED_EDGE ( 'NONE', *, *, #1098, .T. ) ;
#445 = DIRECTION ( 'NONE',  ( 0.0000000000000000000, -1.000000000000000000, 0.0000000000000000000 ) ) ;
#446 = DIRECTION ( 'NONE',  ( 0.0000000000000000000, -1.000000000000000000, 0.0000000000000000000 ) ) ;
#447 = EDGE_CURVE ( 'NONE', #1110, #456, #607, .T. ) ;
#448 = ADVANCED_FACE ( 'NONE', ( #477 ), #730, .T. ) ;
#449 = VERTEX_POINT ( 'NONE', #1095 ) ;
#450 = CARTESIAN_POINT ( 'NONE',  ( 9.749999999999980500, -4.336808689942017700E-015, -3.000000000000002700 ) ) ;
#451 = LINE ( 'NONE', #92, #435 ) ;
#452 = DIRECTION ( 'NONE',  ( -1.000000000000000000, 0.0000000000000000000, -0.0000000000000000000 ) ) ;
#453 = LINE ( 'NONE', #122, #1119 ) ;
#454 = CARTESIAN_POINT ( 'NONE',  ( 8.139999999999981000, -3.050000000000012300, -1.524999999999998600 ) ) ;
#455 = PLANE ( 'NONE',  #347 ) ;
#456 = VERTEX_POINT ( 'NONE', #905 ) ;
#457 = CARTESIAN_POINT ( 'NONE',  ( 9.249999999999980500, 0.4999999999999956700, -1.774999999999998800 ) ) ;
#458 = FACE_OUTER_BOUND ( 'NONE', #739, .T. ) ;
#459 = VERTEX_POINT ( 'NONE', #994 ) ;
#460 = AXIS2_PLACEMENT_3D ( 'NONE', #586, #1030, #1035 ) ;
#461 = EDGE_LOOP ( 'NONE', ( #944, #789 ) ) ;
#462 = PRESENTATION_LAYER_ASSIGNMENT (  '', '', ( #335 ) ) ;
#463 = CARTESIAN_POINT ( 'NONE',  ( -9.250000000000008900, 5.074999999999995700, 2.999999999999988900 ) ) ;
#464 = ORIENTED_EDGE ( 'NONE', *, *, #466, .F. ) ;
#465 = EDGE_LOOP ( 'NONE', ( #9, #370, #544, #233 ) ) ;
#466 = EDGE_CURVE ( 'NONE', #459, #587, #801, .T. ) ;
#467 = DIRECTION ( 'NONE',  ( -0.0000000000000000000, 1.000000000000000000, 0.0000000000000000000 ) ) ;
#468 = CARTESIAN_POINT ( 'NONE',  ( 9.749999999999980500, 5.074999999999995700, 2.999999999999988900 ) ) ;
#469 = VECTOR ( 'NONE', #618, 1000.000000000000000 ) ;
#470 = DIRECTION ( 'NONE',  ( -1.000000000000000000, 0.0000000000000000000, 0.0000000000000000000 ) ) ;
#471 = EDGE_LOOP ( 'NONE', ( #116, #223, #276, #780 ) ) ;
#472 = VECTOR ( 'NONE', #1053, 1000.000000000000000 ) ;
#473 = DIRECTION ( 'NONE',  ( 1.000000000000000000, -0.0000000000000000000, 0.0000000000000000000 ) ) ;
#474 = UNCERTAINTY_MEASURE_WITH_UNIT (LENGTH_MEASURE( 1.000000000000000100E-005 ), #306, 'distance_accuracy_value', 'NONE');
#475 = ORIENTED_EDGE ( 'NONE', *, *, #540, .F. ) ;
#476 = AXIS2_PLACEMENT_3D ( 'NONE', #711, #631, #188 ) ;
#477 = FACE_OUTER_BOUND ( 'NONE', #342, .T. ) ;
#478 = FACE_OUTER_BOUND ( 'NONE', #24, .T. ) ;
#479 = CARTESIAN_POINT ( 'NONE',  ( -8.050000000000007800, 1.499999999999999600, 2.749999999999988500 ) ) ;
#480 = DIRECTION ( 'NONE',  ( -0.0000000000000000000, 1.000000000000000000, -0.0000000000000000000 ) ) ;
#481 = PRESENTATION_LAYER_ASSIGNMENT (  '', '', ( #72 ) ) ;
#482 = FILL_AREA_STYLE_COLOUR ( '', #85 ) ;
#483 = EDGE_CURVE ( 'NONE', #1096, #101, #238, .T. ) ;
#484 = CARTESIAN_POINT ( 'NONE',  ( -7.349999999999995200, -3.050000000000012300, -1.524999999999998600 ) ) ;
#485 = ORIENTED_EDGE ( 'NONE', *, *, #521, .F. ) ;
#486 = VECTOR ( 'NONE', #1152, 1000.000000000000000 ) ;
#487 = ORIENTED_EDGE ( 'NONE', *, *, #1050, .F. ) ;
#488 = ORIENTED_EDGE ( 'NONE', *, *, #1038, .T. ) ;
#489 = EDGE_CURVE ( 'NONE', #998, #755, #451, .T. ) ;
#490 = ORIENTED_EDGE ( 'NONE', *, *, #383, .T. ) ;
#491 = FACE_OUTER_BOUND ( 'NONE', #125, .T. ) ;
#492 = CARTESIAN_POINT ( 'NONE',  ( -4.810000000000008500, -1.275000000000004800, -1.774999999999998800 ) ) ;
#493 = DIRECTION ( 'NONE',  ( 0.0000000000000000000, 0.0000000000000000000, 1.000000000000000000 ) ) ;
#494 = STYLED_ITEM ( 'NONE', ( #144 ), #400 ) ;
#495 = CIRCLE ( 'NONE', #884, 0.2499999999999993600 ) ;
#496 = DIRECTION ( 'NONE',  ( 1.000000000000000000, 0.0000000000000000000, 0.0000000000000000000 ) ) ;
#497 = EDGE_LOOP ( 'NONE', ( #657, #993, #353, #752 ) ) ;
#498 = CARTESIAN_POINT ( 'NONE',  ( 7.889999999999980100, -1.275000000000004800, -1.524999999999998600 ) ) ;
#499 = EDGE_CURVE ( 'NONE', #516, #1032, #358, .T. ) ;
#500 = VERTEX_POINT ( 'NONE', #356 ) ;
#501 = DIRECTION ( 'NONE',  ( 0.0000000000000000000, 0.0000000000000000000, -1.000000000000000000 ) ) ;
#502 = AXIS2_PLACEMENT_3D ( 'NONE', #1045, #503, #1141 ) ;
#503 = DIRECTION ( 'NONE',  ( 0.0000000000000000000, -1.000000000000000000, -0.0000000000000000000 ) ) ;
#504 = VERTEX_POINT ( 'NONE', #454 ) ;
#505 = VECTOR ( 'NONE', #894, 1000.000000000000000 ) ;
#506 = CARTESIAN_POINT ( 'NONE',  ( 3.060000130699985600, 0.4999999999999956700, -3.000000000000002700 ) ) ;
#507 = CARTESIAN_POINT ( 'NONE',  ( -8.050000000000007800, 1.499999999999999600, 2.749999999999988500 ) ) ;
#508 = DIRECTION ( 'NONE',  ( 0.0000000000000000000, 0.0000000000000000000, 1.000000000000000000 ) ) ;
#509 = ADVANCED_FACE ( 'NONE', ( #1147 ), #915, .T. ) ;
#510 = EDGE_LOOP ( 'NONE', ( #426, #742, #530, #485 ) ) ;
#511 = ORIENTED_EDGE ( 'NONE', *, *, #403, .T. ) ;
#512 = EDGE_LOOP ( 'NONE', ( #1051, #932, #292, #429 ) ) ;
#513 = CARTESIAN_POINT ( 'NONE',  ( 7.889999999999980100, -1.275000000000004800, -1.774999999999998800 ) ) ;
#514 = DIRECTION ( 'NONE',  ( -1.000000000000000000, 0.0000000000000000000, 0.0000000000000000000 ) ) ;
#515 = ADVANCED_FACE ( 'NONE', ( #646 ), #182, .T. ) ;
#516 = VERTEX_POINT ( 'NONE', #7 ) ;
#517 = MECHANICAL_DESIGN_GEOMETRIC_PRESENTATION_REPRESENTATION (  '', ( #240 ), #205 ) ;
#518 =( NAMED_UNIT ( * ) PLANE_ANGLE_UNIT ( ) SI_UNIT ( $, .RADIAN. ) );
#519 = DIRECTION ( 'NONE',  ( -0.0000000000000000000, -0.0000000000000000000, 1.000000000000000000 ) ) ;
#520 =( GEOMETRIC_REPRESENTATION_CONTEXT ( 3 ) GLOBAL_UNCERTAINTY_ASSIGNED_CONTEXT ( ( #767 ) ) GLOBAL_UNIT_ASSIGNED_CONTEXT ( ( #255, #437, #433 ) ) REPRESENTATION_CONTEXT ( 'NONE', 'WORKASPACE' ) );
#521 = EDGE_CURVE ( 'NONE', #669, #516, #391, .T. ) ;
#522 = ADVANCED_FACE ( 'NONE', ( #366 ), #806, .T. ) ;
#523 = CARTESIAN_POINT ( 'NONE',  ( -7.099999999999995200, 0.4999999999999956700, -1.524999999999998600 ) ) ;
#524 = LINE ( 'NONE', #468, #134 ) ;
#525 = FACE_OUTER_BOUND ( 'NONE', #654, .T. ) ;
#526 =( LENGTH_UNIT ( ) NAMED_UNIT ( * ) SI_UNIT ( .MILLI., .METRE. ) );
#527 = EDGE_CURVE ( 'NONE', #459, #669, #633, .T. ) ;
#528 = VERTEX_POINT ( 'NONE', #1017 ) ;
#529 = CARTESIAN_POINT ( 'NONE',  ( -5.060000000000009400, -3.050000000000012300, -1.774999999999998800 ) ) ;
#530 = ORIENTED_EDGE ( 'NONE', *, *, #499, .F. ) ;
#531 = ADVANCED_FACE ( 'NONE', ( #338 ), #827, .F. ) ;
#532 = CARTESIAN_POINT ( 'NONE',  ( 9.249999999999980500, 5.074999999999995700, 2.999999999999988900 ) ) ;
#533 = CARTESIAN_POINT ( 'NONE',  ( 2.560000130699985600, 0.4999999999999956700, -1.774999999999998800 ) ) ;
#534 = ORIENTED_EDGE ( 'NONE', *, *, #44, .F. ) ;
#535 = VECTOR ( 'NONE', #641, 1000.000000000000000 ) ;
#536 = SURFACE_STYLE_USAGE ( .BOTH. , #904 ) ;
#537 = DIRECTION ( 'NONE',  ( 1.000000000000000000, 0.0000000000000000000, 0.0000000000000000000 ) ) ;
#538 = AXIS2_PLACEMENT_3D ( 'NONE', #109, #121, #114 ) ;
#539 = SURFACE_STYLE_USAGE ( .BOTH. , #1080 ) ;
#540 = EDGE_CURVE ( 'NONE', #998, #563, #123, .T. ) ;
#541 = CARTESIAN_POINT ( 'NONE',  ( 9.749999999999980500, -4.336808689942017700E-015, -3.000000000000002700 ) ) ;
#542 = VECTOR ( 'NONE', #473, 1000.000000000000000 ) ;
#543 = PRODUCT_RELATED_PRODUCT_CATEGORY ( 'part', '', ( #1002 ) ) ;
#544 = ORIENTED_EDGE ( 'NONE', *, *, #602, .F. ) ;
#545 = CARTESIAN_POINT ( 'NONE',  ( -9.250000000000008900, -4.336808689942017700E-015, -3.000000000000002700 ) ) ;
#546 = CIRCLE ( 'NONE', #844, 0.2499999999999993600 ) ;
#547 = PLANE ( 'NONE',  #782 ) ;
#548 = EDGE_CURVE ( 'NONE', #587, #293, #164, .T. ) ;
#549 = CARTESIAN_POINT ( 'NONE',  ( -9.750000000000008900, 10.00000000000199800, -3.000000000000002700 ) ) ;
#550 = ORIENTED_EDGE ( 'NONE', *, *, #383, .F. ) ;
#551 = CLOSED_SHELL ( 'NONE', ( #1138, #785, #859, #405, #674, #692 ) ) ;
#552 = DIRECTION ( 'NONE',  ( -0.0000000000000000000, -0.0000000000000000000, 1.000000000000000000 ) ) ;
#553 = VECTOR ( 'NONE', #1027, 1000.000000000000000 ) ;
#554 = CARTESIAN_POINT ( 'NONE',  ( 2.560000130699985600, -3.049999945856087800, -1.524999999999998600 ) ) ;
#555 = EDGE_CURVE ( 'NONE', #751, #702, #322, .T. ) ;
#556 = DIRECTION ( 'NONE',  ( 0.0000000000000000000, -1.000000000000000000, 0.0000000000000000000 ) ) ;
#557 = CARTESIAN_POINT ( 'NONE',  ( -7.099999999999995200, -3.050000000000012300, -1.524999999999998600 ) ) ;
#558 = DIRECTION ( 'NONE',  ( -0.0000000000000000000, -0.0000000000000000000, 1.000000000000000000 ) ) ;
#559 = CARTESIAN_POINT ( 'NONE',  ( 9.249999999999980500, 0.4999999999999961100, 2.999999999999988900 ) ) ;
#560 = ORIENTED_EDGE ( 'NONE', *, *, #989, .T. ) ;
#561 = VECTOR ( 'NONE', #924, 1000.000000000000000 ) ;
#562 = AXIS2_PLACEMENT_3D ( 'NONE', #278, #639, #818 ) ;
#563 = VERTEX_POINT ( 'NONE', #1107 ) ;
#564 = CARTESIAN_POINT ( 'NONE',  ( 7.639999999999980100, 0.4999999999999956700, -1.774999999999998800 ) ) ;
#565 = FACE_OUTER_BOUND ( 'NONE', #999, .T. ) ;
#566 =( NAMED_UNIT ( * ) SI_UNIT ( $, .STERADIAN. ) SOLID_ANGLE_UNIT ( ) );
#567 = LINE ( 'NONE', #197, #608 ) ;
#568 = DIRECTION ( 'NONE',  ( 1.000000000000000000, -0.0000000000000000000, 0.0000000000000000000 ) ) ;
#569 =( LENGTH_UNIT ( ) NAMED_UNIT ( * ) SI_UNIT ( .MILLI., .METRE. ) );
#570 = LINE ( 'NONE', #138, #89 ) ;
#571 = PLANE ( 'NONE',  #675 ) ;
#572 = ORIENTED_EDGE ( 'NONE', *, *, #778, .F. ) ;
#573 = DIRECTION ( 'NONE',  ( 0.0000000000000000000, 0.0000000000000000000, 1.000000000000000000 ) ) ;
#574 = CARTESIAN_POINT ( 'NONE',  ( 2.810000130699985600, -3.049999945856087400, -1.774999999999998800 ) ) ;
#575 = EDGE_LOOP ( 'NONE', ( #721, #170, #1054, #117 ) ) ;
#576 = DIRECTION ( 'NONE',  ( 0.0000000000000000000, 0.0000000000000000000, 1.000000000000000000 ) ) ;
#577 = ORIENTED_EDGE ( 'NONE', *, *, #788, .F. ) ;
#578 = ORIENTED_EDGE ( 'NONE', *, *, #548, .F. ) ;
#579 = LINE ( 'NONE', #722, #687 ) ;
#580 = PLANE ( 'NONE',  #460 ) ;
#581 = AXIS2_PLACEMENT_3D ( 'NONE', #1047, #1052, #603 ) ;
#582 = CARTESIAN_POINT ( 'NONE',  ( -4.560000000000008500, 0.4999999999999956700, -1.524999999999998600 ) ) ;
#583 = VECTOR ( 'NONE', #345, 1000.000000000000000 ) ;
#584 = ORIENTED_EDGE ( 'NONE', *, *, #128, .F. ) ;
#585 = EDGE_CURVE ( 'NONE', #91, #1096, #524, .T. ) ;
#586 = CARTESIAN_POINT ( 'NONE',  ( -5.060000000000009400, -3.050000000000012300, -1.774999999999998800 ) ) ;
#587 = VERTEX_POINT ( 'NONE', #746 ) ;
#588 = EDGE_CURVE ( 'NONE', #34, #1125, #1121, .T. ) ;
#589 = ORIENTED_EDGE ( 'NONE', *, *, #224, .T. ) ;
#590 = SURFACE_STYLE_FILL_AREA ( #880 ) ;
#591 = DIRECTION ( 'NONE',  ( 1.000000000000000000, 0.0000000000000000000, 0.0000000000000000000 ) ) ;
#592 = CYLINDRICAL_SURFACE ( 'NONE', #701, 0.2499999999999993600 ) ;
#593 = CARTESIAN_POINT ( 'NONE',  ( -8.050000000000007800, 1.499999999999999600, 2.749999999999988500 ) ) ;
#594 = CARTESIAN_POINT ( 'NONE',  ( 9.749999999999980500, 10.00000000000199800, 2.999999999999988900 ) ) ;
#595 = ADVANCED_FACE ( 'NONE', ( #716 ), #201, .F. ) ;
#596 = MECHANICAL_DESIGN_GEOMETRIC_PRESENTATION_REPRESENTATION (  '', ( #494 ), #520 ) ;
#597 = SURFACE_STYLE_FILL_AREA ( #222 ) ;
#598 = DIRECTION ( 'NONE',  ( 1.000000000000000000, 0.0000000000000000000, 0.0000000000000000000 ) ) ;
#599 = ORIENTED_EDGE ( 'NONE', *, *, #555, .T. ) ;
#600 = DIRECTION ( 'NONE',  ( 1.000000000000000000, 0.0000000000000000000, 0.0000000000000000000 ) ) ;
#601 = VERTEX_POINT ( 'NONE', #649 ) ;
#602 = EDGE_CURVE ( 'NONE', #48, #34, #60, .T. ) ;
#603 = DIRECTION ( 'NONE',  ( 0.0000000000000000000, -1.000000000000000000, 0.0000000000000000000 ) ) ;
#604 = CARTESIAN_POINT ( 'NONE',  ( -7.800000000000009600, 1.499999999999999600, 2.749999999999988500 ) ) ;
#605 = ORIENTED_EDGE ( 'NONE', *, *, #648, .F. ) ;
#606 = EDGE_CURVE ( 'NONE', #1144, #449, #244, .T. ) ;
#607 = LINE ( 'NONE', #169, #318 ) ;
#608 = VECTOR ( 'NONE', #299, 1000.000000000000000 ) ;
#609 = PLANE ( 'NONE',  #11 ) ;
#610 = CARTESIAN_POINT ( 'NONE',  ( -7.800000000000009600, 1.499999999999999600, 2.042893218813442300 ) ) ;
#611 = EDGE_CURVE ( 'NONE', #94, #628, #1023, .T. ) ;
#612 = MANIFOLD_SOLID_BREP ( 'Boss-Extrude1', #1113 ) ;
#613 = LINE ( 'NONE', #287, #1094 ) ;
#614 = ADVANCED_FACE ( 'NONE', ( #395, #313 ), #286, .T. ) ;
#615 = CARTESIAN_POINT ( 'NONE',  ( -8.300000000000009600, 1.499999999999999600, 2.749999999999988500 ) ) ;
#616 = ORIENTED_EDGE ( 'NONE', *, *, #483, .F. ) ;
#617 = EDGE_LOOP ( 'NONE', ( #560, #572, #644, #768 ) ) ;
#618 = DIRECTION ( 'NONE',  ( -0.0000000000000000000, -1.000000000000000000, -0.0000000000000000000 ) ) ;
#619 = LINE ( 'NONE', #812, #26 ) ;
#620 = AXIS2_PLACEMENT_3D ( 'NONE', #1083, #367, #359 ) ;
#621 = CARTESIAN_POINT ( 'NONE',  ( -5.060000000000009400, 0.4999999999999956700, -3.000000000000002700 ) ) ;
#622 = CARTESIAN_POINT ( 'NONE',  ( -7.599999999999996100, -3.050000000000012300, -1.774999999999998800 ) ) ;
#623 = EDGE_CURVE ( 'NONE', #726, #672, #916, .T. ) ;
#624 = CARTESIAN_POINT ( 'NONE',  ( -9.750000000000008900, 10.00000000000199800, -3.000000000000002700 ) ) ;
#625 = CARTESIAN_POINT ( 'NONE',  ( 2.560000130699985600, -1.274999945856004800, -1.524999999999998600 ) ) ;
#626 = PRODUCT_CONTEXT ( 'NONE', #797, 'mechanical' ) ;
#627 = EDGE_CURVE ( 'NONE', #697, #516, #938, .T. ) ;
#628 = VERTEX_POINT ( 'NONE', #298 ) ;
#629 = CARTESIAN_POINT ( 'NONE',  ( 0.0000000000000000000, 10.00000000000199800, 2.999999999999988900 ) ) ;
#630 = CARTESIAN_POINT ( 'NONE',  ( 8.139999999999981000, 0.4999999999999956700, -1.774999999999998800 ) ) ;
#631 = DIRECTION ( 'NONE',  ( 0.0000000000000000000, 0.0000000000000000000, 1.000000000000000000 ) ) ;
#632 = ORIENTED_EDGE ( 'NONE', *, *, #805, .T. ) ;
#633 = LINE ( 'NONE', #733, #686 ) ;
#634 = CARTESIAN_POINT ( 'NONE',  ( 8.139999999999981000, 0.4999999999999956700, -1.774999999999998800 ) ) ;
#635 = DIRECTION ( 'NONE',  ( 1.000000000000000000, 0.0000000000000000000, 0.0000000000000000000 ) ) ;
#636 = DIRECTION ( 'NONE',  ( 0.0000000000000000000, -1.000000000000000000, 0.0000000000000000000 ) ) ;
#637 = FACE_OUTER_BOUND ( 'NONE', #304, .T. ) ;
#638 = ORIENTED_EDGE ( 'NONE', *, *, #161, .T. ) ;
#639 = DIRECTION ( 'NONE',  ( 0.0000000000000000000, -1.000000000000000000, -0.0000000000000000000 ) ) ;
#640 = DIRECTION ( 'NONE',  ( 0.0000000000000000000, 0.0000000000000000000, 1.000000000000000000 ) ) ;
#641 = DIRECTION ( 'NONE',  ( -0.0000000000000000000, 1.000000000000000000, -0.0000000000000000000 ) ) ;
#642 = ORIENTED_EDGE ( 'NONE', *, *, #350, .T. ) ;
#643 = CARTESIAN_POINT ( 'NONE',  ( -7.349999999999995200, -1.275000000000004800, -1.524999999999998600 ) ) ;
#644 = ORIENTED_EDGE ( 'NONE', *, *, #585, .F. ) ;
#645 = DIRECTION ( 'NONE',  ( 0.0000000000000000000, -0.0000000000000000000, -1.000000000000000000 ) ) ;
#646 = FACE_OUTER_BOUND ( 'NONE', #126, .T. ) ;
#647 = UNCERTAINTY_MEASURE_WITH_UNIT (LENGTH_MEASURE( 1.000000000000000100E-005 ), #569, 'distance_accuracy_value', 'NONE');
#648 = EDGE_CURVE ( 'NONE', #1026, #384, #691, .T. ) ;
#649 = CARTESIAN_POINT ( 'NONE',  ( -7.800000000000009600, 1.499999999999999600, 2.749999999999988500 ) ) ;
#650 = FILL_AREA_STYLE_COLOUR ( '', #54 ) ;
#651 = FACE_OUTER_BOUND ( 'NONE', #653, .T. ) ;
#652 = PRESENTATION_STYLE_ASSIGNMENT (( #536 ) ) ;
#653 = EDGE_LOOP ( 'NONE', ( #787, #511, #935, #735 ) ) ;
#654 = EDGE_LOOP ( 'NONE', ( #834, #64, #815, #852 ) ) ;
#655 = PRESENTATION_LAYER_ASSIGNMENT (  '', '', ( #758 ) ) ;
#656 = CARTESIAN_POINT ( 'NONE',  ( 9.249999999999980500, 0.4999999999999956700, -1.524999999999998600 ) ) ;
#657 = ORIENTED_EDGE ( 'NONE', *, *, #447, .F. ) ;
#658 = LINE ( 'NONE', #484, #1085 ) ;
#659 = EDGE_CURVE ( 'NONE', #587, #19, #759, .T. ) ;
#660 = FACE_OUTER_BOUND ( 'NONE', #512, .T. ) ;
#661 = DIRECTION ( 'NONE',  ( 0.0000000000000000000, 0.0000000000000000000, -1.000000000000000000 ) ) ;
#662 = EDGE_CURVE ( 'NONE', #19, #669, #1007, .T. ) ;
#663 = FILL_AREA_STYLE_COLOUR ( '', #833 ) ;
#664 = VECTOR ( 'NONE', #591, 1000.000000000000000 ) ;
#665 = ORIENTED_EDGE ( 'NONE', *, *, #1050, .T. ) ;
#666 = PLANE ( 'NONE',  #538 ) ;
#667 = VECTOR ( 'NONE', #333, 1000.000000000000000 ) ;
#668 = PLANE ( 'NONE',  #1048 ) ;
#669 = VERTEX_POINT ( 'NONE', #314 ) ;
#670 = ORIENTED_EDGE ( 'NONE', *, *, #868, .T. ) ;
#671 = DIRECTION ( 'NONE',  ( 0.0000000000000000000, -1.000000000000000000, 0.0000000000000000000 ) ) ;
#672 = VERTEX_POINT ( 'NONE', #753 ) ;
#673 = LINE ( 'NONE', #523, #772 ) ;
#674 = ADVANCED_FACE ( 'NONE', ( #74 ), #1036, .F. ) ;
#675 = AXIS2_PLACEMENT_3D ( 'NONE', #20, #936, #1019 ) ;
#676 = LINE ( 'NONE', #1145, #1093 ) ;
#677 = DIRECTION ( 'NONE',  ( 0.0000000000000000000, -0.0000000000000000000, -1.000000000000000000 ) ) ;
#678 = PLANE ( 'NONE',  #502 ) ;
#679 = FACE_OUTER_BOUND ( 'NONE', #143, .T. ) ;
#680 = PLANE ( 'NONE',  #13 ) ;
#681 = EDGE_LOOP ( 'NONE', ( #1010, #882, #1126, #398 ) ) ;
#682 = ADVANCED_FACE ( 'NONE', ( #637 ), #668, .F. ) ;
#683 = FILL_AREA_STYLE_COLOUR ( '', #837 ) ;
#684 = DIRECTION ( 'NONE',  ( 0.0000000000000000000, -1.000000000000000000, 0.0000000000000000000 ) ) ;
#685 = ORIENTED_EDGE ( 'NONE', *, *, #606, .F. ) ;
#686 = VECTOR ( 'NONE', #31, 1000.000000000000000 ) ;
#687 = VECTOR ( 'NONE', #294, 1000.000000000000000 ) ;
#688 = DIRECTION ( 'NONE',  ( 0.0000000000000000000, 0.0000000000000000000, -1.000000000000000000 ) ) ;
#689 =( NAMED_UNIT ( * ) PLANE_ANGLE_UNIT ( ) SI_UNIT ( $, .RADIAN. ) );
#690 = CARTESIAN_POINT ( 'NONE',  ( -7.800000000000009600, 1.499999999999999600, 2.999999999999988900 ) ) ;
#691 = CIRCLE ( 'NONE', #888, 0.2499999999999993600 ) ;
#692 = ADVANCED_FACE ( 'NONE', ( #151 ), #580, .T. ) ;
#693 = ORIENTED_EDGE ( 'NONE', *, *, #585, .T. ) ;
#694 = PLANE ( 'NONE',  #1062 ) ;
#695 = VECTOR ( 'NONE', #1001, 1000.000000000000000 ) ;
#696 = DIRECTION ( 'NONE',  ( 1.000000000000000000, 0.0000000000000000000, 0.0000000000000000000 ) ) ;
#697 = VERTEX_POINT ( 'NONE', #582 ) ;
#698 = CARTESIAN_POINT ( 'NONE',  ( -7.800000000000009600, 1.499999999999999600, 2.749999999999988500 ) ) ;
#699 = VERTEX_POINT ( 'NONE', #132 ) ;
#700 = DIRECTION ( 'NONE',  ( -0.0000000000000000000, -1.000000000000000000, -0.0000000000000000000 ) ) ;
#701 = AXIS2_PLACEMENT_3D ( 'NONE', #479, #390, #209 ) ;
#702 = VERTEX_POINT ( 'NONE', #854 ) ;
#703 = VECTOR ( 'NONE', #163, 1000.000000000000000 ) ;
#704 = DIRECTION ( 'NONE',  ( 0.0000000000000000000, 1.000000000000000000, 0.0000000000000000000 ) ) ;
#705 = CARTESIAN_POINT ( 'NONE',  ( -8.050000000000007800, 1.499999999999999600, 2.749999999999988500 ) ) ;
#706 = VERTEX_POINT ( 'NONE', #133 ) ;
#707 = FACE_OUTER_BOUND ( 'NONE', #754, .T. ) ;
#708 = DIRECTION ( 'NONE',  ( 0.0000000000000000000, -1.000000000000000000, 0.0000000000000000000 ) ) ;
#709 = CARTESIAN_POINT ( 'NONE',  ( -7.099999999999995200, 0.4999999999999956700, -1.774999999999998800 ) ) ;
#710 = VECTOR ( 'NONE', #796, 1000.000000000000000 ) ;
#711 = CARTESIAN_POINT ( 'NONE',  ( 2.810000130699985600, -1.274999945856004800, -1.524999999999998600 ) ) ;
#712 = CIRCLE ( 'NONE', #411, 0.2499999999999993600 ) ;
#713 = EDGE_CURVE ( 'NONE', #246, #52, #570, .T. ) ;
#714 = CARTESIAN_POINT ( 'NONE',  ( -5.060000000000009400, -3.050000000000012300, -1.774999999999998800 ) ) ;
#715 = AXIS2_PLACEMENT_3D ( 'NONE', #1076, #262, #154 ) ;
#716 = FACE_OUTER_BOUND ( 'NONE', #461, .T. ) ;
#717 = LINE ( 'NONE', #337, #1092 ) ;
#718 = ORIENTED_EDGE ( 'NONE', *, *, #316, .F. ) ;
#719 = DIRECTION ( 'NONE',  ( -0.0000000000000000000, -0.0000000000000000000, 1.000000000000000000 ) ) ;
#720 = ORIENTED_EDGE ( 'NONE', *, *, #112, .T. ) ;
#721 = ORIENTED_EDGE ( 'NONE', *, *, #868, .F. ) ;
#722 = CARTESIAN_POINT ( 'NONE',  ( 0.0000000000000000000, -4.336808689942017700E-015, 2.999999999999988900 ) ) ;
#723 = CARTESIAN_POINT ( 'NONE',  ( -4.810000000000008500, -1.275000000000004800, -1.524999999999998600 ) ) ;
#724 = ORIENTED_EDGE ( 'NONE', *, *, #627, .F. ) ;
#725 = CARTESIAN_POINT ( 'NONE',  ( -4.560000000000008500, -1.275000000000004800, -1.774999999999998800 ) ) ;
#726 = VERTEX_POINT ( 'NONE', #402 ) ;
#727 = PLANE ( 'NONE',  #1006 ) ;
#728 = LINE ( 'NONE', #111, #70 ) ;
#729 =( LENGTH_UNIT ( ) NAMED_UNIT ( * ) SI_UNIT ( .MILLI., .METRE. ) );
#730 = PLANE ( 'NONE',  #476 ) ;
#731 = MANIFOLD_SOLID_BREP ( 'Split1[2]', #324 ) ;
#732 = PLANE ( 'NONE',  #562 ) ;
#733 = CARTESIAN_POINT ( 'NONE',  ( -4.810000000000008500, -3.050000000000012300, -1.774999999999998800 ) ) ;
#734 = LINE ( 'NONE', #506, #136 ) ;
#735 = ORIENTED_EDGE ( 'NONE', *, *, #1028, .T. ) ;
#736 = SURFACE_STYLE_USAGE ( .BOTH. , #207 ) ;
#737 = PRESENTATION_LAYER_ASSIGNMENT (  '', '', ( #494 ) ) ;
#738 = CARTESIAN_POINT ( 'NONE',  ( -5.060000000000009400, -3.050000000000012300, -1.524999999999998600 ) ) ;
#739 = EDGE_LOOP ( 'NONE', ( #172, #475, #819, #488 ) ) ;
#740 = CARTESIAN_POINT ( 'NONE',  ( -9.750000000000008900, 10.00000000000199800, 2.999999999999988900 ) ) ;
#741 = EDGE_CURVE ( 'NONE', #141, #706, #676, .T. ) ;
#742 = ORIENTED_EDGE ( 'NONE', *, *, #339, .F. ) ;
#743 = CARTESIAN_POINT ( 'NONE',  ( 9.249999999999980500, 0.4999999999999956700, -1.524999999999998600 ) ) ;
#744 = LINE ( 'NONE', #68, #505 ) ;
#745 = CARTESIAN_POINT ( 'NONE',  ( -9.750000000000008900, 10.00000000000199800, -3.000000000000002700 ) ) ;
#746 = CARTESIAN_POINT ( 'NONE',  ( -5.060000000000009400, -3.050000000000012300, -1.524999999999998600 ) ) ;
#747 = CARTESIAN_POINT ( 'NONE',  ( -9.750000000000008900, 5.074999999999995700, 2.999999999999988900 ) ) ;
#748 = CARTESIAN_POINT ( 'NONE',  ( -4.560000000000008500, -3.050000000000012300, -1.774999999999998800 ) ) ;
#749 = LINE ( 'NONE', #769, #1039 ) ;
#750 = ORIENTED_EDGE ( 'NONE', *, *, #1137, .F. ) ;
#751 = VERTEX_POINT ( 'NONE', #242 ) ;
#752 = ORIENTED_EDGE ( 'NONE', *, *, #1028, .F. ) ;
#753 = CARTESIAN_POINT ( 'NONE',  ( -8.300000000000009600, 1.499999999999999600, 2.999999999999988900 ) ) ;
#754 = EDGE_LOOP ( 'NONE', ( #770, #193, #1024, #578 ) ) ;
#755 = VERTEX_POINT ( 'NONE', #1040 ) ;
#756 = ORIENTED_EDGE ( 'NONE', *, *, #741, .T. ) ;
#757 = AXIS2_PLACEMENT_3D ( 'NONE', #559, #636, #645 ) ;
#758 = STYLED_ITEM ( 'NONE', ( #360 ), #162 ) ;
#759 = LINE ( 'NONE', #310, #664 ) ;
#760 = EDGE_CURVE ( 'NONE', #1032, #293, #406, .T. ) ;
#761 = LINE ( 'NONE', #150, #425 ) ;
#762 = ADVANCED_FACE ( 'NONE', ( #440 ), #323, .F. ) ;
#763 = DIRECTION ( 'NONE',  ( 0.0000000000000000000, 0.0000000000000000000, -1.000000000000000000 ) ) ;
#764 = ORIENTED_EDGE ( 'NONE', *, *, #810, .F. ) ;
#765 = VECTOR ( 'NONE', #997, 1000.000000000000000 ) ;
#766 = EDGE_CURVE ( 'NONE', #449, #528, #734, .T. ) ;
#767 = UNCERTAINTY_MEASURE_WITH_UNIT (LENGTH_MEASURE( 1.000000000000000100E-005 ), #255, 'distance_accuracy_value', 'NONE');
#768 = ORIENTED_EDGE ( 'NONE', *, *, #332, .T. ) ;
#769 = CARTESIAN_POINT ( 'NONE',  ( 2.560000130699985600, -3.049999945856087800, -1.774999999999998800 ) ) ;
#770 = ORIENTED_EDGE ( 'NONE', *, *, #659, .T. ) ;
#771 = ADVANCED_FACE ( 'NONE', ( #175 ), #803, .T. ) ;
#772 = VECTOR ( 'NONE', #985, 1000.000000000000000 ) ;
#773 = DIRECTION ( 'NONE',  ( -0.0000000000000000000, -1.000000000000000000, -0.0000000000000000000 ) ) ;
#774 = CARTESIAN_POINT ( 'NONE',  ( 9.249999999999980500, 0.4999999999999956700, -3.000000000000002700 ) ) ;
#775 = CARTESIAN_POINT ( 'NONE',  ( 9.749999999999980500, 10.00000000000199800, -3.000000000000002700 ) ) ;
#776 = CARTESIAN_POINT ( 'NONE',  ( -7.599999999999996100, -3.050000000000012300, -1.774999999999998800 ) ) ;
#777 = ORIENTED_EDGE ( 'NONE', *, *, #611, .F. ) ;
#778 = EDGE_CURVE ( 'NONE', #1096, #1140, #110, .T. ) ;
#779 = PRESENTATION_STYLE_ASSIGNMENT (( #539 ) ) ;
#780 = ORIENTED_EDGE ( 'NONE', *, *, #339, .T. ) ;
#781 = DIRECTION ( 'NONE',  ( -0.0000000000000000000, -0.0000000000000000000, -1.000000000000000000 ) ) ;
#782 = AXIS2_PLACEMENT_3D ( 'NONE', #348, #1091, #909 ) ;
#783 = EDGE_LOOP ( 'NONE', ( #179, #401, #939, #855 ) ) ;
#784 = DIRECTION ( 'NONE',  ( 0.0000000000000000000, 0.0000000000000000000, 1.000000000000000000 ) ) ;
#785 = ADVANCED_FACE ( 'NONE', ( #365 ), #860, .T. ) ;
#786 = CARTESIAN_POINT ( 'NONE',  ( 8.139999999999981000, -3.050000000000012300, -1.774999999999998800 ) ) ;
#787 = ORIENTED_EDGE ( 'NONE', *, *, #588, .F. ) ;
#788 = EDGE_CURVE ( 'NONE', #1170, #94, #46, .T. ) ;
#789 = ORIENTED_EDGE ( 'NONE', *, *, #810, .T. ) ;
#790 = CARTESIAN_POINT ( 'NONE',  ( -9.750000000000008900, 0.4999999999999956700, -3.000000000000002700 ) ) ;
#791 = DIRECTION ( 'NONE',  ( -1.000000000000000000, -0.0000000000000000000, -0.0000000000000000000 ) ) ;
#792 = EDGE_CURVE ( 'NONE', #97, #48, #975, .T. ) ;
#793 = CARTESIAN_POINT ( 'NONE',  ( 7.639999999999980100, 0.4999999999999956700, -3.000000000000002700 ) ) ;
#794 = VECTOR ( 'NONE', #496, 1000.000000000000000 ) ;
#795 = CARTESIAN_POINT ( 'NONE',  ( -8.050000000000007800, 1.499999999999999600, 2.749999999999988500 ) ) ;
#796 = DIRECTION ( 'NONE',  ( 0.0000000000000000000, 0.0000000000000000000, -1.000000000000000000 ) ) ;
#797 = APPLICATION_CONTEXT ( 'automotive_design' ) ;
#798 = ORIENTED_EDGE ( 'NONE', *, *, #659, .F. ) ;
#799 = CARTESIAN_POINT ( 'NONE',  ( 2.810000130699985600, -3.049999945856087400, -1.524999999999998600 ) ) ;
#800 = ORIENTED_EDGE ( 'NONE', *, *, #228, .F. ) ;
#801 = LINE ( 'NONE', #714, #418 ) ;
#802 = FACE_OUTER_BOUND ( 'NONE', #465, .T. ) ;
#803 = PLANE ( 'NONE',  #715 ) ;
#804 = DIRECTION ( 'NONE',  ( -0.0000000000000000000, -0.0000000000000000000, 1.000000000000000000 ) ) ;
#805 = EDGE_CURVE ( 'NONE', #1144, #113, #229, .T. ) ;
#806 = PLANE ( 'NONE',  #1033 ) ;
#807 = AXIS2_PLACEMENT_3D ( 'NONE', #263, #898, #1169 ) ;
#808 = UNCERTAINTY_MEASURE_WITH_UNIT (LENGTH_MEASURE( 1.000000000000000100E-005 ), #27, 'distance_accuracy_value', 'NONE');
#809 =( NAMED_UNIT ( * ) SI_UNIT ( $, .STERADIAN. ) SOLID_ANGLE_UNIT ( ) );
#810 = EDGE_CURVE ( 'NONE', #1157, #978, #204, .T. ) ;
#811 = ADVANCED_FACE ( 'NONE', ( #651 ), #146, .T. ) ;
#812 = CARTESIAN_POINT ( 'NONE',  ( -7.599999999999996100, -3.050000000000012300, -1.774999999999998800 ) ) ;
#813 = ORIENTED_EDGE ( 'NONE', *, *, #623, .T. ) ;
#814 = FACE_OUTER_BOUND ( 'NONE', #889, .T. ) ;
#815 = ORIENTED_EDGE ( 'NONE', *, *, #893, .T. ) ;
#816 = DIRECTION ( 'NONE',  ( 0.0000000000000000000, -1.000000000000000000, 0.0000000000000000000 ) ) ;
#817 = DIRECTION ( 'NONE',  ( -1.000000000000000000, -0.0000000000000000000, -0.0000000000000000000 ) ) ;
#818 = DIRECTION ( 'NONE',  ( -1.000000000000000000, 0.0000000000000000000, -0.0000000000000000000 ) ) ;
#819 = ORIENTED_EDGE ( 'NONE', *, *, #489, .T. ) ;
#820 = ORIENTED_EDGE ( 'NONE', *, *, #788, .T. ) ;
#821 = PLANE ( 'NONE',  #1153 ) ;
#822 = LINE ( 'NONE', #127, #553 ) ;
#823 = DIRECTION ( 'NONE',  ( 0.0000000000000000000, -0.0000000000000000000, -1.000000000000000000 ) ) ;
#824 =( NAMED_UNIT ( * ) PLANE_ANGLE_UNIT ( ) SI_UNIT ( $, .RADIAN. ) );
#825 =( GEOMETRIC_REPRESENTATION_CONTEXT ( 3 ) GLOBAL_UNCERTAINTY_ASSIGNED_CONTEXT ( ( #1106 ) ) GLOBAL_UNIT_ASSIGNED_CONTEXT ( ( #83, #518, #809 ) ) REPRESENTATION_CONTEXT ( 'NONE', 'WORKASPACE' ) );
#826 = LINE ( 'NONE', #913, #850 ) ;
#827 = PLANE ( 'NONE',  #221 ) ;
#828 = EDGE_CURVE ( 'NONE', #246, #563, #1162, .T. ) ;
#829 = DIRECTION ( 'NONE',  ( 0.0000000000000000000, 0.0000000000000000000, -1.000000000000000000 ) ) ;
#830 = LINE ( 'NONE', #745, #42 ) ;
#831 = CARTESIAN_POINT ( 'NONE',  ( 9.249999999999980500, 0.4999999999999956700, -1.524999999999998600 ) ) ;
#832 = FILL_AREA_STYLE ('',( #650 ) ) ;
#833 = COLOUR_RGB ( '',0.7921568627450980000, 0.8196078431372548800, 0.9333333333333333500 ) ;
#834 = ORIENTED_EDGE ( 'NONE', *, *, #499, .T. ) ;
#835 = CARTESIAN_POINT ( 'NONE',  ( -8.050000000000007800, 1.499999999999999600, 2.999999999999988900 ) ) ;
#836 = AXIS2_PLACEMENT_3D ( 'NONE', #1177, #1090, #900 ) ;
#837 = COLOUR_RGB ( '',0.7921568627450980000, 0.8196078431372548800, 0.9333333333333333500 ) ;
#838 = EDGE_LOOP ( 'NONE', ( #867, #237, #902, #18, #1146, #2, #371, #273 ) ) ;
#839 = DIRECTION ( 'NONE',  ( 0.0000000000000000000, 0.0000000000000000000, -1.000000000000000000 ) ) ;
#840 = EDGE_CURVE ( 'NONE', #706, #290, #14, .T. ) ;
#841 = ORIENTED_EDGE ( 'NONE', *, *, #1133, .F. ) ;
#842 = CARTESIAN_POINT ( 'NONE',  ( 0.0000000000000000000, 5.074999999999995700, 2.999999999999988900 ) ) ;
#843 = VECTOR ( 'NONE', #700, 1000.000000000000000 ) ;
#844 = AXIS2_PLACEMENT_3D ( 'NONE', #593, #1005, #600 ) ;
#845 = LINE ( 'NONE', #118, #1000 ) ;
#846 = AXIS2_PLACEMENT_3D ( 'NONE', #302, #470, #1115 ) ;
#847 = DIRECTION ( 'NONE',  ( 1.000000000000000000, 0.0000000000000000000, 0.0000000000000000000 ) ) ;
#848 = SURFACE_STYLE_FILL_AREA ( #49 ) ;
#849 =( NAMED_UNIT ( * ) SI_UNIT ( $, .STERADIAN. ) SOLID_ANGLE_UNIT ( ) );
#850 = VECTOR ( 'NONE', #829, 1000.000000000000000 ) ;
#851 = EDGE_CURVE ( 'NONE', #563, #954, #897, .T. ) ;
#852 = ORIENTED_EDGE ( 'NONE', *, *, #627, .T. ) ;
#853 = VERTEX_POINT ( 'NONE', #957 ) ;
#854 = CARTESIAN_POINT ( 'NONE',  ( 8.139999999999981000, 0.4999999999999956700, -1.524999999999998600 ) ) ;
#855 = ORIENTED_EDGE ( 'NONE', *, *, #447, .T. ) ;
#856 = MANIFOLD_SOLID_BREP ( 'Split1[1]', #551 ) ;
#857 = VECTOR ( 'NONE', #245, 1000.000000000000000 ) ;
#858 =( LENGTH_UNIT ( ) NAMED_UNIT ( * ) SI_UNIT ( .MILLI., .METRE. ) );
#859 = ADVANCED_FACE ( 'NONE', ( #707 ), #280, .T. ) ;
#860 = PLANE ( 'NONE',  #581 ) ;
#861 = DIRECTION ( 'NONE',  ( 0.0000000000000000000, -1.000000000000000000, 0.0000000000000000000 ) ) ;
#862 = EDGE_CURVE ( 'NONE', #52, #430, #35, .T. ) ;
#863 = CARTESIAN_POINT ( 'NONE',  ( 0.0000000000000000000, 5.074999999999995700, -3.000000000000002700 ) ) ;
#864 = AXIS2_PLACEMENT_3D ( 'NONE', #992, #640, #556 ) ;
#865 = ORIENTED_EDGE ( 'NONE', *, *, #21, .F. ) ;
#866 = DIRECTION ( 'NONE',  ( 0.0000000000000000000, 0.0000000000000000000, 1.000000000000000000 ) ) ;
#867 = ORIENTED_EDGE ( 'NONE', *, *, #713, .F. ) ;
#868 = EDGE_CURVE ( 'NONE', #504, #290, #940, .T. ) ;
#869 = ORIENTED_EDGE ( 'NONE', *, *, #441, .F. ) ;
#870 = CARTESIAN_POINT ( 'NONE',  ( 2.560000130699985600, -3.049999945856087800, -1.774999999999998800 ) ) ;
#871 = CARTESIAN_POINT ( 'NONE',  ( -9.250000000000008900, -4.336808689942017700E-015, 2.999999999999988900 ) ) ;
#872 = ORIENTED_EDGE ( 'NONE', *, *, #340, .F. ) ;
#873 = LINE ( 'NONE', #260, #857 ) ;
#874 = VECTOR ( 'NONE', #119, 1000.000000000000000 ) ;
#875 = CARTESIAN_POINT ( 'NONE',  ( 7.889999999999980100, -3.050000000000012300, -1.774999999999998800 ) ) ;
#876 = DIRECTION ( 'NONE',  ( 1.000000000000000000, 0.0000000000000000000, 0.0000000000000000000 ) ) ;
#877 = DIRECTION ( 'NONE',  ( 0.0000000000000000000, 0.0000000000000000000, 1.000000000000000000 ) ) ;
#878 = CARTESIAN_POINT ( 'NONE',  ( 9.749999999999980500, 0.4999999999999956700, -3.000000000000002700 ) ) ;
#879 = ADVANCED_FACE ( 'NONE', ( #964 ), #547, .T. ) ;
#880 = FILL_AREA_STYLE ('',( #250 ) ) ;
#881 = VECTOR ( 'NONE', #50, 1000.000000000000000 ) ;
#882 = ORIENTED_EDGE ( 'NONE', *, *, #380, .F. ) ;
#883 = EDGE_LOOP ( 'NONE', ( #206, #343, #670, #220 ) ) ;
#884 = AXIS2_PLACEMENT_3D ( 'NONE', #795, #886, #1067 ) ;
#885 = ORIENTED_EDGE ( 'NONE', *, *, #766, .T. ) ;
#886 = DIRECTION ( 'NONE',  ( -0.0000000000000000000, -0.0000000000000000000, -1.000000000000000000 ) ) ;
#887 = ORIENTED_EDGE ( 'NONE', *, *, #792, .T. ) ;
#888 = AXIS2_PLACEMENT_3D ( 'NONE', #1122, #1134, #847 ) ;
#889 = EDGE_LOOP ( 'NONE', ( #764, #1097, #605, #750 ) ) ;
#890 = ORIENTED_EDGE ( 'NONE', *, *, #98, .F. ) ;
#891 = CARTESIAN_POINT ( 'NONE',  ( 9.249999999999980500, 0.4999999999999961100, 2.999999999999988900 ) ) ;
#892 = VECTOR ( 'NONE', #88, 1000.000000000000000 ) ;
#893 = EDGE_CURVE ( 'NONE', #293, #697, #412, .T. ) ;
#894 = DIRECTION ( 'NONE',  ( -1.000000000000000000, 0.0000000000000000000, -0.0000000000000000000 ) ) ;
#895 = CARTESIAN_POINT ( 'NONE',  ( 2.560000130699985600, 0.4999999999999956700, -1.524999999999998600 ) ) ;
#896 = ADVANCED_FACE ( 'NONE', ( #979 ), #12, .T. ) ;
#897 = LINE ( 'NONE', #532, #272 ) ;
#898 = DIRECTION ( 'NONE',  ( 0.0000000000000000000, 0.0000000000000000000, 1.000000000000000000 ) ) ;
#899 = ORIENTED_EDGE ( 'NONE', *, *, #409, .T. ) ;
#900 = DIRECTION ( 'NONE',  ( 0.0000000000000000000, -1.000000000000000000, 0.0000000000000000000 ) ) ;
#901 = VECTOR ( 'NONE', #96, 1000.000000000000000 ) ;
#902 = ORIENTED_EDGE ( 'NONE', *, *, #1150, .F. ) ;
#903 = EDGE_LOOP ( 'NONE', ( #432, #841, #1167, #62 ) ) ;
#904 = SURFACE_SIDE_STYLE ('',( #33 ) ) ;
#905 = CARTESIAN_POINT ( 'NONE',  ( -7.099999999999995200, -3.050000000000012300, -1.774999999999998800 ) ) ;
#906 =( GEOMETRIC_REPRESENTATION_CONTEXT ( 3 ) GLOBAL_UNCERTAINTY_ASSIGNED_CONTEXT ( ( #647 ) ) GLOBAL_UNIT_ASSIGNED_CONTEXT ( ( #569, #386, #25 ) ) REPRESENTATION_CONTEXT ( 'NONE', 'WORKASPACE' ) );
#907 = ORIENTED_EDGE ( 'NONE', *, *, #713, .T. ) ;
#908 = VECTOR ( 'NONE', #696, 1000.000000000000000 ) ;
#909 = DIRECTION ( 'NONE',  ( -1.000000000000000000, 0.0000000000000000000, -0.0000000000000000000 ) ) ;
#910 = EDGE_CURVE ( 'NONE', #1157, #384, #1112, .T. ) ;
#911 = DIRECTION ( 'NONE',  ( 0.0000000000000000000, 0.0000000000000000000, -1.000000000000000000 ) ) ;
#912 = MECHANICAL_DESIGN_GEOMETRIC_PRESENTATION_REPRESENTATION (  '', ( #72 ), #825 ) ;
#913 = CARTESIAN_POINT ( 'NONE',  ( -9.750000000000008900, -4.336808689942017700E-015, -3.000000000000002700 ) ) ;
#914 = DIRECTION ( 'NONE',  ( 0.0000000000000000000, 0.0000000000000000000, 1.000000000000000000 ) ) ;
#915 = PLANE ( 'NONE',  #37 ) ;
#916 = CIRCLE ( 'NONE', #105, 0.2499999999999993600 ) ;
#917 = UNCERTAINTY_MEASURE_WITH_UNIT (LENGTH_MEASURE( 1.000000000000000100E-005 ), #858, 'distance_accuracy_value', 'NONE');
#918 = ORIENTED_EDGE ( 'NONE', *, *, #862, .T. ) ;
#919 = CLOSED_SHELL ( 'NONE', ( #51, #145, #65, #448, #1056, #254 ) ) ;
#920 = DIRECTION ( 'NONE',  ( 1.000000000000000000, -0.0000000000000000000, 0.0000000000000000000 ) ) ;
#921 = VERTEX_POINT ( 'NONE', #630 ) ;
#922 = DIRECTION ( 'NONE',  ( 0.0000000000000000000, 0.0000000000000000000, -1.000000000000000000 ) ) ;
#923 = ORIENTED_EDGE ( 'NONE', *, *, #741, .F. ) ;
#924 = DIRECTION ( 'NONE',  ( 1.000000000000000000, -0.0000000000000000000, 0.0000000000000000000 ) ) ;
#925 = CARTESIAN_POINT ( 'NONE',  ( 2.560000130699985600, -3.049999945856087800, -1.774999999999998800 ) ) ;
#926 = FILL_AREA_STYLE ('',( #482 ) ) ;
#927 = CARTESIAN_POINT ( 'NONE',  ( -8.050000000000007800, 1.499999999999999600, 2.749999999999988500 ) ) ;
#928 = VECTOR ( 'NONE', #1168, 1000.000000000000000 ) ;
#929 =( NAMED_UNIT ( * ) PLANE_ANGLE_UNIT ( ) SI_UNIT ( $, .RADIAN. ) );
#930 = COLOUR_RGB ( '',0.7921568627450980000, 0.8196078431372548800, 0.9333333333333333500 ) ;
#931 = DIRECTION ( 'NONE',  ( 0.0000000000000000000, -0.0000000000000000000, -1.000000000000000000 ) ) ;
#932 = ORIENTED_EDGE ( 'NONE', *, *, #168, .T. ) ;
#933 = ORIENTED_EDGE ( 'NONE', *, *, #441, .T. ) ;
#934 = DIRECTION ( 'NONE',  ( -1.000000000000000000, 0.0000000000000000000, -0.0000000000000000000 ) ) ;
#935 = ORIENTED_EDGE ( 'NONE', *, *, #259, .T. ) ;
#936 = DIRECTION ( 'NONE',  ( -1.000000000000000000, 0.0000000000000000000, 0.0000000000000000000 ) ) ;
#937 = EDGE_CURVE ( 'NONE', #1016, #39, #352, .T. ) ;
#938 = LINE ( 'NONE', #40, #1077 ) ;
#939 = ORIENTED_EDGE ( 'NONE', *, *, #416, .F. ) ;
#940 = LINE ( 'NONE', #369, #765 ) ;
#941 =( NAMED_UNIT ( * ) PLANE_ANGLE_UNIT ( ) SI_UNIT ( $, .RADIAN. ) );
#942 = ORIENTED_EDGE ( 'NONE', *, *, #588, .T. ) ;
#943 = DIRECTION ( 'NONE',  ( 0.0000000000000000000, 0.0000000000000000000, -1.000000000000000000 ) ) ;
#944 = ORIENTED_EDGE ( 'NONE', *, *, #1133, .T. ) ;
#945 =( GEOMETRIC_REPRESENTATION_CONTEXT ( 3 ) GLOBAL_UNCERTAINTY_ASSIGNED_CONTEXT ( ( #917 ) ) GLOBAL_UNIT_ASSIGNED_CONTEXT ( ( #858, #689, #983 ) ) REPRESENTATION_CONTEXT ( 'NONE', 'WORKASPACE' ) );
#946 = LINE ( 'NONE', #424, #703 ) ;
#947 = AXIS2_PLACEMENT_3D ( 'NONE', #705, #76, #442 ) ;
#948 = CARTESIAN_POINT ( 'NONE',  ( -8.050000000000007800, 1.499999999999999600, 2.999999999999988900 ) ) ;
#949 = EDGE_CURVE ( 'NONE', #231, #751, #219, .T. ) ;
#950 = VECTOR ( 'NONE', #1044, 1000.000000000000000 ) ;
#951 = ADVANCED_FACE ( 'NONE', ( #326 ), #90, .F. ) ;
#952 = EDGE_CURVE ( 'NONE', #697, #19, #93, .T. ) ;
#953 = ORIENTED_EDGE ( 'NONE', *, *, #648, .T. ) ;
#954 = VERTEX_POINT ( 'NONE', #274 ) ;
#955 = ADVANCED_FACE ( 'NONE', ( #458 ), #186, .T. ) ;
#956 = LINE ( 'NONE', #311, #377 ) ;
#957 = CARTESIAN_POINT ( 'NONE',  ( -7.599999999999996100, 0.4999999999999956700, -1.774999999999998800 ) ) ;
#958 = DIRECTION ( 'NONE',  ( -1.000000000000000000, 0.0000000000000000000, -0.0000000000000000000 ) ) ;
#959 = MECHANICAL_DESIGN_GEOMETRIC_PRESENTATION_REPRESENTATION (  '', ( #438 ), #1022 ) ;
#960 = LINE ( 'NONE', #610, #1123 ) ;
#961 =( GEOMETRIC_REPRESENTATION_CONTEXT ( 3 ) GLOBAL_UNCERTAINTY_ASSIGNED_CONTEXT ( ( #148 ) ) GLOBAL_UNIT_ASSIGNED_CONTEXT ( ( #526, #80, #980 ) ) REPRESENTATION_CONTEXT ( 'NONE', 'WORKASPACE' ) );
#962 = ORIENTED_EDGE ( 'NONE', *, *, #555, .F. ) ;
#963 = DIRECTION ( 'NONE',  ( 1.000000000000000000, -0.0000000000000000000, 0.0000000000000000000 ) ) ;
#964 = FACE_OUTER_BOUND ( 'NONE', #575, .T. ) ;
#965 = EDGE_LOOP ( 'NONE', ( #67, #41 ) ) ;
#966 = CARTESIAN_POINT ( 'NONE',  ( 9.749999999999980500, -4.336808689942017700E-015, -3.000000000000002700 ) ) ;
#967 = AXIS2_PLACEMENT_3D ( 'NONE', #129, #194, #375 ) ;
#968 = CARTESIAN_POINT ( 'NONE',  ( -5.060000000000009400, 0.4999999999999956700, -1.774999999999998800 ) ) ;
#969 = ORIENTED_EDGE ( 'NONE', *, *, #59, .T. ) ;
#970 = ORIENTED_EDGE ( 'NONE', *, *, #332, .F. ) ;
#971 = FACE_OUTER_BOUND ( 'NONE', #81, .T. ) ;
#972 = PLANE ( 'NONE',  #277 ) ;
#973 = EDGE_CURVE ( 'NONE', #1165, #601, #546, .T. ) ;
#974 = CARTESIAN_POINT ( 'NONE',  ( -8.300000000000009600, 1.499999999999999600, 2.749999999999988500 ) ) ;
#975 = LINE ( 'NONE', #419, #928 ) ;
#976 = SURFACE_SIDE_STYLE ('',( #590 ) ) ;
#977 = FACE_OUTER_BOUND ( 'NONE', #1066, .T. ) ;
#978 = VERTEX_POINT ( 'NONE', #604 ) ;
#979 = FACE_OUTER_BOUND ( 'NONE', #617, .T. ) ;
#980 =( NAMED_UNIT ( * ) SI_UNIT ( $, .STERADIAN. ) SOLID_ANGLE_UNIT ( ) );
#981 = VERTEX_POINT ( 'NONE', #871 ) ;
#982 = ORIENTED_EDGE ( 'NONE', *, *, #489, .F. ) ;
#983 =( NAMED_UNIT ( * ) SI_UNIT ( $, .STERADIAN. ) SOLID_ANGLE_UNIT ( ) );
#984 = ADVANCED_FACE ( 'NONE', ( #63 ), #609, .F. ) ;
#985 = DIRECTION ( 'NONE',  ( 0.0000000000000000000, -1.000000000000000000, 0.0000000000000000000 ) ) ;
#986 = PRODUCT_DEFINITION ( 'UNKNOWN', '', #420, #78 ) ;
#987 = CARTESIAN_POINT ( 'NONE',  ( -9.250000000000008900, -4.336808689942017700E-015, -3.000000000000002700 ) ) ;
#988 = PLANE ( 'NONE',  #354 ) ;
#989 = EDGE_CURVE ( 'NONE', #430, #1140, #305, .T. ) ;
#990 = DIRECTION ( 'NONE',  ( 0.0000000000000000000, 0.0000000000000000000, -1.000000000000000000 ) ) ;
#991 = PRESENTATION_STYLE_ASSIGNMENT (( #404 ) ) ;
#992 = CARTESIAN_POINT ( 'NONE',  ( -7.349999999999995200, -1.275000000000004800, -1.774999999999998800 ) ) ;
#993 = ORIENTED_EDGE ( 'NONE', *, *, #1173, .F. ) ;
#994 = CARTESIAN_POINT ( 'NONE',  ( -5.060000000000009400, -3.050000000000012300, -1.774999999999998800 ) ) ;
#995 = ORIENTED_EDGE ( 'NONE', *, *, #350, .F. ) ;
#996 = CARTESIAN_POINT ( 'NONE',  ( 2.560000130699985600, 0.4999999999999956700, -3.000000000000002700 ) ) ;
#997 = DIRECTION ( 'NONE',  ( 0.0000000000000000000, 0.0000000000000000000, -1.000000000000000000 ) ) ;
#998 = VERTEX_POINT ( 'NONE', #243 ) ;
#999 = EDGE_LOOP ( 'NONE', ( #190, #1124 ) ) ;
#1000 = VECTOR ( 'NONE', #934, 1000.000000000000000 ) ;
#1001 = DIRECTION ( 'NONE',  ( 0.0000000000000000000, 0.0000000000000000000, 1.000000000000000000 ) ) ;
#1002 = PRODUCT ( 'TBA 1-1212HI', 'TBA 1-1212HI', '', ( #626 ) ) ;
#1003 = DIRECTION ( 'NONE',  ( -0.0000000000000000000, 1.000000000000000000, -0.0000000000000000000 ) ) ;
#1004 = CARTESIAN_POINT ( 'NONE',  ( -7.599999999999996100, 0.4999999999999956700, -1.524999999999998600 ) ) ;
#1005 = DIRECTION ( 'NONE',  ( 0.0000000000000000000, 0.0000000000000000000, 1.000000000000000000 ) ) ;
#1006 = AXIS2_PLACEMENT_3D ( 'NONE', #549, #467, #635 ) ;
#1007 = LINE ( 'NONE', #748, #177 ) ;
#1008 = SHAPE_DEFINITION_REPRESENTATION ( #376, #1158 ) ;
#1009 = CARTESIAN_POINT ( 'NONE',  ( -7.099999999999995200, 0.4999999999999956700, -1.524999999999998600 ) ) ;
#1010 = ORIENTED_EDGE ( 'NONE', *, *, #214, .F. ) ;
#1011 = VECTOR ( 'NONE', #963, 1000.000000000000000 ) ;
#1012 = STYLED_ITEM ( 'NONE', ( #1049 ), #731 ) ;
#1013 = ORIENTED_EDGE ( 'NONE', *, *, #949, .F. ) ;
#1014 = EDGE_CURVE ( 'NONE', #706, #231, #247, .T. ) ;
#1015 = CARTESIAN_POINT ( 'NONE',  ( -8.050000000000007800, 1.499999999999999600, 2.042893218813442300 ) ) ;
#1016 = VERTEX_POINT ( 'NONE', #325 ) ;
#1017 = CARTESIAN_POINT ( 'NONE',  ( 3.060000130699985600, 0.4999999999999956700, -1.774999999999998800 ) ) ;
#1018 = FACE_OUTER_BOUND ( 'NONE', #156, .T. ) ;
#1019 = DIRECTION ( 'NONE',  ( 0.0000000000000000000, 1.000000000000000000, 0.0000000000000000000 ) ) ;
#1020 = DIRECTION ( 'NONE',  ( 1.000000000000000000, 0.0000000000000000000, 0.0000000000000000000 ) ) ;
#1021 = PLANE ( 'NONE',  #846 ) ;
#1022 =( GEOMETRIC_REPRESENTATION_CONTEXT ( 3 ) GLOBAL_UNCERTAINTY_ASSIGNED_CONTEXT ( ( #808 ) ) GLOBAL_UNIT_ASSIGNED_CONTEXT ( ( #27, #929, #566 ) ) REPRESENTATION_CONTEXT ( 'NONE', 'WORKASPACE' ) );
#1023 = LINE ( 'NONE', #574, #794 ) ;
#1024 = ORIENTED_EDGE ( 'NONE', *, *, #893, .F. ) ;
#1025 = VECTOR ( 'NONE', #104, 1000.000000000000000 ) ;
#1026 = VERTEX_POINT ( 'NONE', #690 ) ;
#1027 = DIRECTION ( 'NONE',  ( 0.0000000000000000000, -1.000000000000000000, 0.0000000000000000000 ) ) ;
#1028 = EDGE_CURVE ( 'NONE', #456, #1125, #261, .T. ) ;
#1029 = DIRECTION ( 'NONE',  ( 0.0000000000000000000, 0.0000000000000000000, -1.000000000000000000 ) ) ;
#1030 = DIRECTION ( 'NONE',  ( -1.000000000000000000, 0.0000000000000000000, 0.0000000000000000000 ) ) ;
#1031 = ORIENTED_EDGE ( 'NONE', *, *, #952, .T. ) ;
#1032 = VERTEX_POINT ( 'NONE', #968 ) ;
#1033 = AXIS2_PLACEMENT_3D ( 'NONE', #264, #346, #23 ) ;
#1034 = FACE_OUTER_BOUND ( 'NONE', #208, .T. ) ;
#1035 = DIRECTION ( 'NONE',  ( 0.0000000000000000000, 1.000000000000000000, 0.0000000000000000000 ) ) ;
#1036 = PLANE ( 'NONE',  #200 ) ;
#1037 = VECTOR ( 'NONE', #661, 1000.000000000000000 ) ;
#1038 = EDGE_CURVE ( 'NONE', #755, #246, #79, .T. ) ;
#1039 = VECTOR ( 'NONE', #407, 1000.000000000000000 ) ;
#1040 = CARTESIAN_POINT ( 'NONE',  ( -9.250000000000008900, 0.4999999999999961100, -3.000000000000002700 ) ) ;
#1041 = EDGE_LOOP ( 'NONE', ( #181, #923, #995, #800 ) ) ;
#1042 = ADVANCED_FACE ( 'NONE', ( #814 ), #1078, .T. ) ;
#1043 = PRESENTATION_LAYER_ASSIGNMENT (  '', '', ( #438 ) ) ;
#1044 = DIRECTION ( 'NONE',  ( 1.000000000000000000, 0.0000000000000000000, 0.0000000000000000000 ) ) ;
#1045 = CARTESIAN_POINT ( 'NONE',  ( -7.099999999999995200, -3.050000000000012300, -1.774999999999998800 ) ) ;
#1046 = ADVANCED_FACE ( 'NONE', ( #977 ), #694, .T. ) ;
#1047 = CARTESIAN_POINT ( 'NONE',  ( -4.560000000000008500, 0.4999999999999956700, -1.774999999999998800 ) ) ;
#1048 = AXIS2_PLACEMENT_3D ( 'NONE', #394, #671, #677 ) ;
#1049 = PRESENTATION_STYLE_ASSIGNMENT (( #142 ) ) ;
#1050 = EDGE_CURVE ( 'NONE', #699, #981, #364, .T. ) ;
#1051 = ORIENTED_EDGE ( 'NONE', *, *, #112, .F. ) ;
#1052 = DIRECTION ( 'NONE',  ( 1.000000000000000000, 0.0000000000000000000, 0.0000000000000000000 ) ) ;
#1053 = DIRECTION ( 'NONE',  ( -0.0000000000000000000, 1.000000000000000000, -0.0000000000000000000 ) ) ;
#1054 = ORIENTED_EDGE ( 'NONE', *, *, #1014, .F. ) ;
#1055 = LINE ( 'NONE', #790, #843 ) ;
#1056 = ADVANCED_FACE ( 'NONE', ( #178 ), #58, .F. ) ;
#1057 = CARTESIAN_POINT ( 'NONE',  ( 9.249999999999980500, -4.336808689942017700E-015, -3.000000000000002700 ) ) ;
#1058 = CARTESIAN_POINT ( 'NONE',  ( 7.639999999999980100, -3.050000000000012300, -1.774999999999998800 ) ) ;
#1059 = DIRECTION ( 'NONE',  ( 1.000000000000000000, 0.0000000000000000000, -0.0000000000000000000 ) ) ;
#1060 = VECTOR ( 'NONE', #1020, 1000.000000000000000 ) ;
#1061 = ADVANCED_FACE ( 'NONE', ( #77 ), #678, .T. ) ;
#1062 = AXIS2_PLACEMENT_3D ( 'NONE', #498, #1136, #684 ) ;
#1063 = VECTOR ( 'NONE', #86, 1000.000000000000000 ) ;
#1064 = VECTOR ( 'NONE', #291, 1000.000000000000000 ) ;
#1065 = CARTESIAN_POINT ( 'NONE',  ( -9.250000000000008900, 0.4999999999999956700, -3.000000000000002700 ) ) ;
#1066 = EDGE_LOOP ( 'NONE', ( #248, #195, #962, #1013 ) ) ;
#1067 = DIRECTION ( 'NONE',  ( 1.000000000000000000, 0.0000000000000000000, 0.0000000000000000000 ) ) ;
#1068 = EDGE_LOOP ( 'NONE', ( #328, #550, #777, #577 ) ) ;
#1069 = ORIENTED_EDGE ( 'NONE', *, *, #521, .T. ) ;
#1070 = LINE ( 'NONE', #799, #908 ) ;
#1071 = AXIS2_PLACEMENT_3D ( 'NONE', #723, #914, #816 ) ;
#1072 = SURFACE_STYLE_FILL_AREA ( #832 ) ;
#1073 = DIRECTION ( 'NONE',  ( 0.0000000000000000000, -1.000000000000000000, 0.0000000000000000000 ) ) ;
#1074 = DIRECTION ( 'NONE',  ( 0.0000000000000000000, 0.0000000000000000000, 1.000000000000000000 ) ) ;
#1075 = EDGE_CURVE ( 'NONE', #94, #113, #749, .T. ) ;
#1076 = CARTESIAN_POINT ( 'NONE',  ( -9.250000000000008900, -4.336808689942017700E-015, -3.000000000000002700 ) ) ;
#1077 = VECTOR ( 'NONE', #943, 1000.000000000000000 ) ;
#1078 = CYLINDRICAL_SURFACE ( 'NONE', #443, 0.2499999999999993600 ) ;
#1079 = ORIENTED_EDGE ( 'NONE', *, *, #316, .T. ) ;
#1080 = SURFACE_SIDE_STYLE ('',( #1142 ) ) ;
#1081 = ADVANCED_FACE ( 'NONE', ( #679 ), #236, .T. ) ;
#1082 = AXIS2_PLACEMENT_3D ( 'NONE', #1057, #514, #428 ) ;
#1083 = CARTESIAN_POINT ( 'NONE',  ( 9.749999999999980500, -4.336808689942017700E-015, -3.000000000000002700 ) ) ;
#1084 =( NAMED_UNIT ( * ) SI_UNIT ( $, .STERADIAN. ) SOLID_ANGLE_UNIT ( ) );
#1085 = VECTOR ( 'NONE', #38, 1000.000000000000000 ) ;
#1086 = LINE ( 'NONE', #545, #284 ) ;
#1087 = DIRECTION ( 'NONE',  ( 0.0000000000000000000, -1.000000000000000000, 0.0000000000000000000 ) ) ;
#1088 = CARTESIAN_POINT ( 'NONE',  ( -8.300000000000009600, 1.499999999999999600, 2.042893218813442300 ) ) ;
#1089 =( GEOMETRIC_REPRESENTATION_CONTEXT ( 3 ) GLOBAL_UNCERTAINTY_ASSIGNED_CONTEXT ( ( #474 ) ) GLOBAL_UNIT_ASSIGNED_CONTEXT ( ( #306, #941, #849 ) ) REPRESENTATION_CONTEXT ( 'NONE', 'WORKASPACE' ) );
#1090 = DIRECTION ( 'NONE',  ( 1.000000000000000000, 0.0000000000000000000, 0.0000000000000000000 ) ) ;
#1091 = DIRECTION ( 'NONE',  ( 0.0000000000000000000, -1.000000000000000000, -0.0000000000000000000 ) ) ;
#1092 = VECTOR ( 'NONE', #1161, 1000.000000000000000 ) ;
#1093 = VECTOR ( 'NONE', #773, 1000.000000000000000 ) ;
#1094 = VECTOR ( 'NONE', #558, 1000.000000000000000 ) ;
#1095 = CARTESIAN_POINT ( 'NONE',  ( 3.060000130699985600, 0.4999999999999956700, -1.524999999999998600 ) ) ;
#1096 = VERTEX_POINT ( 'NONE', #594 ) ;
#1097 = ORIENTED_EDGE ( 'NONE', *, *, #910, .T. ) ;
#1098 = EDGE_CURVE ( 'NONE', #528, #1170, #761, .T. ) ;
#1099 = CARTESIAN_POINT ( 'NONE',  ( 9.249999999999980500, 0.4999999999999956700, -1.524999999999998600 ) ) ;
#1100 = DIRECTION ( 'NONE',  ( 0.0000000000000000000, -1.000000000000000000, 0.0000000000000000000 ) ) ;
#1101 = ORIENTED_EDGE ( 'NONE', *, *, #1116, .F. ) ;
#1102 = CLOSED_SHELL ( 'NONE', ( #682, #1061, #45, #811, #951, #522 ) ) ;
#1103 = CARTESIAN_POINT ( 'NONE',  ( 9.249999999999980500, -4.336808689942017700E-015, -3.000000000000002700 ) ) ;
#1104 = FACE_OUTER_BOUND ( 'NONE', #210, .T. ) ;
#1105 = DIRECTION ( 'NONE',  ( 0.0000000000000000000, -1.000000000000000000, 0.0000000000000000000 ) ) ;
#1106 = UNCERTAINTY_MEASURE_WITH_UNIT (LENGTH_MEASURE( 1.000000000000000100E-005 ), #83, 'distance_accuracy_value', 'NONE');
#1107 = CARTESIAN_POINT ( 'NONE',  ( 9.249999999999980500, 0.4999999999999961100, 2.999999999999988900 ) ) ;
#1108 = VECTOR ( 'NONE', #56, 1000.000000000000000 ) ;
#1109 = SURFACE_STYLE_USAGE ( .BOTH. , #29 ) ;
#1110 = VERTEX_POINT ( 'NONE', #776 ) ;
#1111 = EDGE_CURVE ( 'NONE', #1140, #308, #61, .T. ) ;
#1112 = LINE ( 'NONE', #1088, #695 ) ;
#1113 = CLOSED_SHELL ( 'NONE', ( #1042, #235, #1081, #595 ) ) ;
#1114 = ORIENTED_EDGE ( 'NONE', *, *, #973, .F. ) ;
#1115 = DIRECTION ( 'NONE',  ( 0.0000000000000000000, 1.000000000000000000, 0.0000000000000000000 ) ) ;
#1116 = EDGE_CURVE ( 'NONE', #601, #726, #230, .T. ) ;
#1117 = ORIENTED_EDGE ( 'NONE', *, *, #527, .T. ) ;
#1118 = LINE ( 'NONE', #793, #53 ) ;
#1119 = VECTOR ( 'NONE', #1029, 1000.000000000000000 ) ;
#1120 = CARTESIAN_POINT ( 'NONE',  ( 7.639999999999980100, -3.050000000000012300, -1.524999999999998600 ) ) ;
#1121 = LINE ( 'NONE', #120, #1037 ) ;
#1122 = CARTESIAN_POINT ( 'NONE',  ( -8.050000000000007800, 1.499999999999999600, 2.999999999999988900 ) ) ;
#1123 = VECTOR ( 'NONE', #1074, 1000.000000000000000 ) ;
#1124 = ORIENTED_EDGE ( 'NONE', *, *, #973, .T. ) ;
#1125 = VERTEX_POINT ( 'NONE', #709 ) ;
#1126 = ORIENTED_EDGE ( 'NONE', *, *, #1075, .F. ) ;
#1127 = DIRECTION ( 'NONE',  ( 0.0000000000000000000, -1.000000000000000000, 0.0000000000000000000 ) ) ;
#1128 = AXIS2_PLACEMENT_3D ( 'NONE', #1139, #1149, #1073 ) ;
#1129 = EDGE_LOOP ( 'NONE', ( #189, #399, #47, #490 ) ) ;
#1130 = ORIENTED_EDGE ( 'NONE', *, *, #662, .F. ) ;
#1131 = VECTOR ( 'NONE', #990, 1000.000000000000000 ) ;
#1132 = SURFACE_SIDE_STYLE ('',( #848 ) ) ;
#1133 = EDGE_CURVE ( 'NONE', #978, #1157, #495, .T. ) ;
#1134 = DIRECTION ( 'NONE',  ( 0.0000000000000000000, 0.0000000000000000000, 1.000000000000000000 ) ) ;
#1135 = AXIS2_PLACEMENT_3D ( 'NONE', #269, #191, #1176 ) ;
#1136 = DIRECTION ( 'NONE',  ( 0.0000000000000000000, 0.0000000000000000000, 1.000000000000000000 ) ) ;
#1137 = EDGE_CURVE ( 'NONE', #978, #1026, #960, .T. ) ;
#1138 = ADVANCED_FACE ( 'NONE', ( #525 ), #972, .F. ) ;
#1139 = CARTESIAN_POINT ( 'NONE',  ( -7.099999999999995200, 0.4999999999999956700, -1.774999999999998800 ) ) ;
#1140 = VERTEX_POINT ( 'NONE', #436 ) ;
#1141 = DIRECTION ( 'NONE',  ( -1.000000000000000000, 0.0000000000000000000, -0.0000000000000000000 ) ) ;
#1142 = SURFACE_STYLE_FILL_AREA ( #414 ) ;
#1143 = EDGE_LOOP ( 'NONE', ( #251, #36, #872, #756 ) ) ;
#1144 = VERTEX_POINT ( 'NONE', #895 ) ;
#1145 = CARTESIAN_POINT ( 'NONE',  ( 7.639999999999980100, -3.050000000000012300, -1.774999999999998800 ) ) ;
#1146 = ORIENTED_EDGE ( 'NONE', *, *, #393, .F. ) ;
#1147 = FACE_OUTER_BOUND ( 'NONE', #883, .T. ) ;
#1148 = PRESENTATION_STYLE_ASSIGNMENT (( #736 ) ) ;
#1149 = DIRECTION ( 'NONE',  ( 1.000000000000000000, 0.0000000000000000000, 0.0000000000000000000 ) ) ;
#1150 = EDGE_CURVE ( 'NONE', #39, #755, #135, .T. ) ;
#1151 = ADVANCED_FACE ( 'NONE', ( #16 ), #988, .T. ) ;
#1152 = DIRECTION ( 'NONE',  ( -0.0000000000000000000, 1.000000000000000000, -0.0000000000000000000 ) ) ;
#1153 = AXIS2_PLACEMENT_3D ( 'NONE', #1174, #275, #452 ) ;
#1154 = EDGE_LOOP ( 'NONE', ( #373, #887, #718, #22 ) ) ;
#1155 = DIRECTION ( 'NONE',  ( 0.0000000000000000000, -0.0000000000000000000, -1.000000000000000000 ) ) ;
#1156 = DIRECTION ( 'NONE',  ( -0.0000000000000000000, -1.000000000000000000, -0.0000000000000000000 ) ) ;
#1157 = VERTEX_POINT ( 'NONE', #615 ) ;
#1158 = ADVANCED_BREP_SHAPE_REPRESENTATION ( 'TBA 1-1212HI', ( #856, #731, #400, #192, #162, #612, #807 ), #961 ) ;
#1159 = EDGE_CURVE ( 'NONE', #231, #504, #717, .T. ) ;
#1160 = COLOUR_RGB ( '',0.7921568627450980000, 0.8196078431372548800, 0.9333333333333333500 ) ;
#1161 = DIRECTION ( 'NONE',  ( 1.000000000000000000, 0.0000000000000000000, 0.0000000000000000000 ) ) ;
#1162 = LINE ( 'NONE', #319, #1108 ) ;
#1163 = DIRECTION ( 'NONE',  ( 0.0000000000000000000, -1.000000000000000000, 0.0000000000000000000 ) ) ;
#1164 = APPLICATION_PROTOCOL_DEFINITION ( 'draft international standard', 'automotive_design', 1998, #797 ) ;
#1165 = VERTEX_POINT ( 'NONE', #974 ) ;
#1166 = MECHANICAL_DESIGN_GEOMETRIC_PRESENTATION_REPRESENTATION (  '', ( #758 ), #906 ) ;
#1167 = ORIENTED_EDGE ( 'NONE', *, *, #1137, .T. ) ;
#1168 = DIRECTION ( 'NONE',  ( 0.0000000000000000000, 1.000000000000000000, 0.0000000000000000000 ) ) ;
#1169 = DIRECTION ( 'NONE',  ( 1.000000000000000000, 0.0000000000000000000, 0.0000000000000000000 ) ) ;
#1170 = VERTEX_POINT ( 'NONE', #533 ) ;
#1171 = VECTOR ( 'NONE', #817, 1000.000000000000000 ) ;
#1172 = AXIS2_PLACEMENT_3D ( 'NONE', #863, #82, #708 ) ;
#1173 = EDGE_CURVE ( 'NONE', #853, #1110, #288, .T. ) ;
#1174 = CARTESIAN_POINT ( 'NONE',  ( -4.560000000000008500, -3.050000000000012300, -1.774999999999998800 ) ) ;
#1175 = CARTESIAN_POINT ( 'NONE',  ( 9.749999999999980500, -4.336808689942017700E-015, 2.999999999999988900 ) ) ;
#1176 = DIRECTION ( 'NONE',  ( 0.0000000000000000000, -1.000000000000000000, 0.0000000000000000000 ) ) ;
#1177 = CARTESIAN_POINT ( 'NONE',  ( -9.250000000000008900, 0.4999999999999956700, -3.000000000000002700 ) ) ;
ENDSEC;
END-ISO-10303-21;
